<svg id="Warstwa_1" data-name="Warstwa 1" xmlns="http://www.w3.org/2000/svg" xmlns:xlink="http://www.w3.org/1999/xlink" viewBox="0 0 1250 301.81"><defs><style>.cls-1{fill:url(#Gradient_bez_nazwy_10);}.cls-2{fill:url(#Gradient_bez_nazwy_20);}.cls-3{fill:url(#Gradient_bez_nazwy_20-2);}.cls-4{fill:url(#Gradient_bez_nazwy_20-3);}.cls-5{fill:url(#Gradient_bez_nazwy_20-4);}.cls-6{fill:url(#Gradient_bez_nazwy_20-5);}.cls-7{fill:url(#Gradient_bez_nazwy_20-6);}.cls-8{fill:url(#Gradient_bez_nazwy_20-7);}.cls-9{fill:url(#Gradient_bez_nazwy_20-8);}.cls-10{fill:url(#Gradient_bez_nazwy_20-9);}.cls-11{fill:url(#Gradient_bez_nazwy_20-10);}.cls-12{fill:#fbb034;}</style><linearGradient id="Gradient_bez_nazwy_10" y1="150" x2="1250" y2="150" gradientUnits="userSpaceOnUse"><stop offset="0" stop-color="#ff4c4c"/><stop offset="1" stop-color="#f85a40"/></linearGradient><linearGradient id="Gradient_bez_nazwy_20" x1="433.65" y1="663.12" x2="470.6" y2="663.12" gradientTransform="translate(-26.27 195.1) rotate(-0.05)" gradientUnits="userSpaceOnUse"><stop offset="0" stop-color="#000333"/><stop offset="1" stop-color="#52565e"/></linearGradient><linearGradient id="Gradient_bez_nazwy_20-2" x1="391.03" y1="663.14" x2="427.94" y2="663.14" gradientTransform="matrix(1, 0, 0, 1, -17.13, 221.43)" xlink:href="#Gradient_bez_nazwy_20"/><linearGradient id="Gradient_bez_nazwy_20-3" x1="619.7" y1="660.77" x2="656.65" y2="660.77" gradientTransform="translate(1209.85 1401.22) rotate(179.95)" xlink:href="#Gradient_bez_nazwy_20"/><linearGradient id="Gradient_bez_nazwy_20-4" x1="662.35" y1="660.75" x2="699.27" y2="660.75" gradientTransform="translate(1285.98 1374.79) rotate(179.95)" xlink:href="#Gradient_bez_nazwy_20"/><linearGradient id="Gradient_bez_nazwy_20-5" x1="479.24" y1="667.27" x2="611.05" y2="667.27" gradientTransform="translate(-43.62 136.76) rotate(-0.05)" xlink:href="#Gradient_bez_nazwy_20"/><linearGradient id="Gradient_bez_nazwy_20-6" x1="1449.07" y1="1462.11" x2="1486.03" y2="1462.11" gradientTransform="matrix(1, 0, 0, -1, -268.27, 2318.79)" xlink:href="#Gradient_bez_nazwy_20"/><linearGradient id="Gradient_bez_nazwy_20-7" x1="1406.46" y1="1462.13" x2="1443.37" y2="1462.13" gradientTransform="matrix(1, 0, 0, -1, -192.13, 2345.22)" xlink:href="#Gradient_bez_nazwy_20"/><linearGradient id="Gradient_bez_nazwy_20-8" x1="1635.12" y1="1459.76" x2="1672.08" y2="1459.76" gradientTransform="matrix(-1, 0, 0, 1, 2710.46, -717.47)" xlink:href="#Gradient_bez_nazwy_20"/><linearGradient id="Gradient_bez_nazwy_20-9" x1="1677.78" y1="1459.74" x2="1714.69" y2="1459.74" gradientTransform="matrix(-1, 0, 0, 1, 2719.6, -743.8)" xlink:href="#Gradient_bez_nazwy_20"/><linearGradient id="Gradient_bez_nazwy_20-10" x1="1494.67" y1="1466.26" x2="1626.47" y2="1466.26" gradientTransform="matrix(1, 0, 0, -1, -436.96, 2268.61)" xlink:href="#Gradient_bez_nazwy_20"/></defs><title>grafika9</title><polyline class="cls-1" points="0 200.68 0 0 1250 0 1250 300 0 300 0 200.68"/><rect class="cls-2" x="407.97" y="768.5" width="36.82" height="178.7" rx="7.93" transform="translate(-627.27 -193.6) rotate(-38.15)"/><rect class="cls-3" x="374.48" y="821.1" width="36.82" height="126.27" rx="7.93" transform="translate(-650.72 -208.65) rotate(-38.15)"/><rect class="cls-4" x="552.73" y="651.61" width="36.82" height="178.7" rx="7.93" transform="translate(1289.59 330.57) rotate(141.85)"/><rect class="cls-5" x="586.23" y="651.44" width="36.82" height="126.27" rx="7.93" transform="translate(1333.13 262.75) rotate(141.85)"/><rect class="cls-6" x="436.16" y="789.06" width="131.78" height="29.07" transform="translate(-577.59 -158.44) rotate(-38.15)"/><rect class="cls-7" x="1182.04" y="768.5" width="36.82" height="178.7" rx="7.93" transform="translate(1426.11 1633.78) rotate(-141.85)"/><rect class="cls-8" x="1215.54" y="821.1" width="36.82" height="126.27" rx="7.93" transform="translate(1469.65 1701.6) rotate(-141.85)"/><rect class="cls-9" x="1037.28" y="651.61" width="36.82" height="178.7" rx="7.93" transform="translate(494.82 -1134.11) rotate(38.15)"/><rect class="cls-10" x="1003.78" y="651.44" width="36.82" height="126.27" rx="7.93" transform="translate(471.37 -1119.05) rotate(38.15)"/><rect class="cls-11" x="1058.89" y="789.06" width="131.78" height="29.07" transform="translate(1324.45 1490.11) rotate(-141.85)"/><path class="cls-12" d="M589.34,939c0-122.6,99.75-222,222.81-222S1035,816.4,1035,939" transform="translate(-188.42 -640.25)"/></svg>