<svg id="Warstwa_1" data-name="Warstwa 1" xmlns="http://www.w3.org/2000/svg" xmlns:xlink="http://www.w3.org/1999/xlink" viewBox="0 0 267 193"><defs><style>.cls-1{fill:url(#Gradient_bez_nazwy_10);}.cls-2{fill:#fbb034;}.cls-3{fill:url(#Gradient_bez_nazwy_20);}.cls-4{fill:url(#Gradient_bez_nazwy_20-2);}.cls-5{fill:url(#Gradient_bez_nazwy_20-3);}.cls-6{fill:url(#Gradient_bez_nazwy_20-4);}.cls-7{fill:url(#Gradient_bez_nazwy_20-5);}</style><linearGradient id="Gradient_bez_nazwy_10" y1="96.5" x2="267" y2="96.5" gradientUnits="userSpaceOnUse"><stop offset="0" stop-color="#ff4c4c"/><stop offset="1" stop-color="#f85a40"/></linearGradient><linearGradient id="Gradient_bez_nazwy_20" x1="85.5" y1="141.53" x2="101.4" y2="141.53" gradientUnits="userSpaceOnUse"><stop offset="0" stop-color="#000333"/><stop offset="1" stop-color="#52565e"/></linearGradient><linearGradient id="Gradient_bez_nazwy_20-2" x1="67.15" y1="141.54" x2="83.04" y2="141.54" xlink:href="#Gradient_bez_nazwy_20"/><linearGradient id="Gradient_bez_nazwy_20-3" x1="918.75" y1="432.7" x2="934.65" y2="432.7" gradientTransform="translate(1853.74 864.65) rotate(179.95)" xlink:href="#Gradient_bez_nazwy_20"/><linearGradient id="Gradient_bez_nazwy_20-4" x1="937.11" y1="432.69" x2="953" y2="432.69" gradientTransform="translate(1890.46 864.62) rotate(179.95)" xlink:href="#Gradient_bez_nazwy_20"/><linearGradient id="Gradient_bez_nazwy_20-5" x1="105.13" y1="143.32" x2="161.87" y2="143.32" xlink:href="#Gradient_bez_nazwy_20"/></defs><title>grafika3</title><polyline class="cls-1" points="0 129.1 0 0 267 0 267 193 0 193 0 129.1"/><path class="cls-2" d="M753.15,485.18c0-73.46,59.77-133,133.5-133s133.5,59.54,133.5,133" transform="translate(-753.15 -292.18)"/><rect class="cls-3" x="85.52" y="103.06" width="15.85" height="76.94" rx="7.93"/><rect class="cls-4" x="67.17" y="114.36" width="15.85" height="54.36" rx="7.93"/><rect class="cls-5" x="918.77" y="394.23" width="15.85" height="76.94" rx="7.93" transform="translate(1099.9 573.96) rotate(-179.95)"/><rect class="cls-6" x="937.13" y="405.51" width="15.85" height="54.36" rx="7.93" transform="translate(1136.61 573.96) rotate(-179.95)"/><rect class="cls-7" x="105.13" y="137.06" width="56.74" height="12.52"/></svg>