<svg id="Warstwa_1" data-name="Warstwa 1" xmlns="http://www.w3.org/2000/svg" xmlns:xlink="http://www.w3.org/1999/xlink" viewBox="0 0 270.96 193"><defs><style>.cls-1,.cls-3{fill:url(#Gradient_bez_nazwy_4);}.cls-2{stroke:#f9f7f7;stroke-miterlimit:10;stroke-width:5px;fill:url(#Gradient_bez_nazwy_4-2);}.cls-3{opacity:0.44;}.cls-4{fill:url(#Gradient_bez_nazwy_14);}</style><linearGradient id="Gradient_bez_nazwy_4" x1="2.24" y1="96.5" x2="269.24" y2="96.5" gradientUnits="userSpaceOnUse"><stop offset="0" stop-color="#2bb3f3"/><stop offset="0.37" stop-color="#149af9"/><stop offset="0.73" stop-color="#058afe"/><stop offset="1" stop-color="#0084ff"/></linearGradient><linearGradient id="Gradient_bez_nazwy_4-2" x1="1.7" y1="96.25" x2="269.36" y2="96.25" xlink:href="#Gradient_bez_nazwy_4"/><linearGradient id="Gradient_bez_nazwy_14" x1="835.29" y1="580.23" x2="949.29" y2="580.23" gradientUnits="userSpaceOnUse"><stop offset="0" stop-color="#ff6050"/><stop offset="0.49" stop-color="#ee4141"/><stop offset="1" stop-color="#db1d30"/></linearGradient></defs><title>grafika8.1</title><polyline class="cls-1" points="2.24 129.1 2.24 103.27 2.24 94.81 2.24 0 269.24 0 269.24 193 2.24 193 2.24 129.1"/><polyline class="cls-2" points="1.7 135.68 46.53 94.25 82.66 152.25 120.81 62.25 136.87 100.25 154.93 40.25 197.09 139.25 222.18 104.25 244.27 137.25 269.36 116.25"/><polyline class="cls-3" points="2.24 129.1 2.24 103.27 2.24 94.81 2.24 0 269.24 0 269.24 193 2.24 193 2.24 129.1"/><path class="cls-4" d="M892.65,633.52c7.87-5.57,52.47-38.26,56.18-69.51.52-4.43,1.58-13.33-3.49-21.94-6.93-11.78-20.23-14.28-22.16-14.62-8.8-1.51-21.4.09-27.85,8.49a19.39,19.39,0,0,0-3,5.82,19.39,19.39,0,0,0-3-5.82c-6.45-8.4-19-10-27.85-8.49-1.93.34-15.23,2.84-22.16,14.62-5.07,8.61-4,17.51-3.49,21.94,3.7,31.25,48.31,63.94,56.18,69.51" transform="translate(-757.64 -470.75)"/></svg>