<svg width="1168" height="1441" viewBox="0 0 1168 1441" fill="none" xmlns="http://www.w3.org/2000/svg">
<g id="grafika1 1" clip-path="url(#clip0)">
<g id="lines">
<path id="Vector" d="M224.01 1253.93C193.01 1227 187.54 1180.81 179.82 1115.63C178.59 1105.29 173.61 1060.01 181.24 998.72C190.66 923.06 207.17 920.31 209.76 863.28C212.66 799.18 192.06 796.84 195.5 734.96C199.5 662.58 228.2 656.96 224.01 600.96C219.61 542.11 187.3 540.24 178.4 475.48C169.91 413.77 191.96 362.48 204.06 334.33C217.32 303.48 234.4 263.82 272.49 233.11C342.63 176.57 461.71 168.31 523.4 221.69C559.84 253.22 544.27 278.55 588.98 374.25C626.09 453.65 659.42 524.99 718.73 539.63C787.95 556.72 828.11 480.63 888.39 503.99C952.81 528.93 961.94 637.1 962.53 645.14C963.91 664.14 969.04 734.8 924.03 777.73C877.11 822.49 821.22 793.73 785.74 826.21C738.94 869.09 833.09 949.56 808.55 1081.42C804.87 1101.16 784.78 1196.89 713.02 1229.69C695.86 1237.54 681.82 1239.01 656.02 1241.1C548.33 1249.81 462.07 1250.98 455.02 1251.1C289.92 1253.42 260.63 1285.74 224.01 1253.93Z" stroke="white" stroke-width="6" stroke-miterlimit="10"/>
<path id="Vector_2" d="M109.95 507.56C99.56 448.46 94.4 418.92 97.12 392.11C104.74 318.11 146.94 265.95 167.7 240.27C204.4 194.8 242.88 170.11 263.93 156.82C293.5 138.18 351.07 101.89 428.61 94.8198C516.61 86.8198 645.32 115.02 672.41 188.92C689.12 234.51 651.2 253.86 659.58 334.35C660.49 343.09 673.23 454.35 732.29 473.35C777.79 487.98 802.22 432.24 867.02 432.71C957.4 433.37 1019.79 542.58 1025.28 552.48C1067.53 628.67 1079.92 746.3 1023.14 802.69C973.4 852.11 905.15 820.11 877.72 866.84C852.1 910.51 900.81 956.84 905.52 1037.93C905.99 1046.05 906.35 1172.38 817.84 1251.79C795.24 1272.07 773.41 1283.38 753.68 1292.43C676.88 1327.63 440.21 1436.11 219.02 1326.64C163.4 1299.11 117.71 1276.51 94.9801 1226.11C52.0401 1130.94 150.8 1069.11 122.79 922.43C108.09 845.43 70.68 809.05 90.71 742.78C103.2 701.45 123.14 697.78 131.34 652.96C138.95 611.36 125.33 594.97 109.95 507.56Z" stroke="white" stroke-width="6" stroke-miterlimit="10"/>
<path id="Vector_3" d="M39.4 285.11C52.24 245.34 85.6801 141.72 191.24 69.1099C205.41 59.3599 308.72 -9.48008 445.74 4.94992C523.3 13.1199 580.05 44.6399 631.8 73.3899C676.45 98.1899 698.8 110.59 710.93 131.13C756.23 207.71 674.72 305.04 715.2 347.13C732.33 364.94 757.41 358.4 800.75 357.82C885.64 356.69 990.8 379.08 1053.1 424.12C1148.18 492.85 1195.73 652.12 1140.79 755.6C1104.73 823.51 1044.55 851.84 1044.55 851.84C993.09 876.07 957.49 862.57 939.76 888.2C917.5 920.35 957.86 964.28 969.7 1025.07C996.16 1160.98 862.51 1290.97 845.7 1307.37C743.56 1406.7 620.14 1418.2 501.38 1429.27C380.31 1440.55 159.55 1461.12 67.24 1328.75C33.17 1279.89 2.47001 1189.92 30.89 1114.89C48.76 1067.7 74.89 1066.4 82.21 1025.07C96.45 945.07 4.61001 915.77 3.08001 824.07C1.85001 750.26 60.82 740.16 62.96 650.84C64.36 592.51 39.56 582.55 24.47 507.56C3.03002 401.28 30.81 311.7 39.4 285.11Z" stroke="white" stroke-width="6" stroke-miterlimit="10"/>
</g>
<g id="body">
<g id="Warstwa 2">
<path id="Vector_4" d="M453.08 597.61C452.91 596.48 454.86 596.11 456.41 593.81C459.47 589.26 455.9 584.61 454.98 575.75C453.83 564.61 458.27 560.28 454.51 555.32C452.51 552.7 450.38 552.71 447.38 551.04C433.89 543.53 431.2 517.69 436.45 514.92C439.61 513.26 445.17 520.2 447.86 518.25C450 516.7 448.21 511.03 447.38 507.79C447.38 507.79 443.81 493.85 448.33 475.48C452.23 459.6 470.27 446.48 488.25 443.16C516.77 437.88 536.83 458.78 541 463.16C545.47 467.81 552.74 475.38 553.36 485.97C553.71 491.97 551.91 498.48 550.51 503.56C547.77 513.48 544.14 519.91 546.23 521.62C547.89 522.97 551.06 519.69 554.31 521.14C557.86 522.73 558.44 528.6 558.59 530.14C559.48 539.23 548.2 542.83 538.59 558.65C537.09 561.13 536.17 562.98 535.74 563.88C532.06 571.51 532.26 575.33 530.51 580.04C528.84 584.52 524.33 588.73 515.3 597.15C508.06 603.9 504.44 607.28 501.52 608.08C493.52 610.27 490.73 604.58 475.38 601.43C463.23 598.91 453.48 600.11 453.08 597.61Z" fill="#D37566"/>
</g>
<g id="Warstwa 3">
<path id="Vector_5" d="M526.75 576.7C528.37 577.3 528.3 579.7 530.07 589.54C531.52 597.54 532.94 605.45 534.35 609.54C540.11 626.01 560.66 621.26 585.68 639.95C588.62 642.15 596 647.95 603.74 646.13C605.813 645.575 607.752 644.606 609.44 643.28C619.52 636.89 640.71 656.92 663.62 667.52C673.02 671.87 703.88 684.43 733.95 675.12C745.29 671.61 747.43 667.81 759.62 666.12C775.29 663.92 780.06 669.04 801.91 669.92C817.7 670.56 832.13 671.15 839.46 662.32C844.64 656.08 840.04 652.65 845.64 640.93C851.76 628.12 858.53 629.6 866.07 614.79C869.07 608.99 869.65 605.52 874.15 599.59C877.55 595.12 882.05 589.36 887.93 589.59C891.18 589.72 895.12 591.7 896.01 594.81C896.14 595.25 896.55 596.91 894.65 600.81C893.32 603.54 891.59 605.81 886.81 610.44C881.3 615.8 880.09 616.23 878.81 618.99C877.3 622.18 876.57 626.58 878.09 627.55C879.29 628.3 881.81 626.9 883.26 625.23C885.17 623.03 884.26 621.49 885.76 618.28C887.17 615.33 888.3 615.93 891.82 611.51C894.82 607.67 894.82 606.23 896.82 605.45C899.1 604.55 902.53 605.1 903.77 607.05C905.41 609.65 901.77 612.59 900.2 620.05C898.84 626.44 901.02 626.46 899.67 632.53C898.05 639.74 894.86 640.21 894.14 646.96C893.62 651.88 895.14 652.96 893.67 655.64C891.77 658.98 888.58 658.46 885.11 662.76C883.44 664.84 883.69 665.58 882.02 668.47C879.31 673.16 876.68 674.65 873.47 677.97C866.65 685.03 869.54 687.63 863.47 693.65C859.379 697.724 854.149 700.461 848.47 701.5C843.78 702.26 840.72 701.34 838.01 701.02C826.92 699.7 818.31 707.92 808.79 714.33C805.01 716.87 786.29 729.47 764.11 731.67C746.48 733.43 739.38 727.35 723.72 733.58C716.09 736.58 715.72 738.88 708.51 740.47C697.51 742.9 692.81 738.83 677.38 738.8C663.77 738.8 664.98 741.94 657.38 740.7C640.31 737.92 635.44 722.03 625.54 723.83C620.16 724.83 617.89 730.18 613.18 737.62C601.74 755.68 591.58 761.2 582.05 771.62C555.29 800.84 530.47 872.11 544.09 881.11C551.64 886.11 572.67 873.11 590.79 861.86C600.79 855.67 614.23 846.05 626.79 849.74C629.33 850.49 630.73 851.46 634.27 851.88C644.43 853.09 647.27 846.79 657.08 846.88C662.86 846.94 662.52 849.11 673.84 851.16C678.321 851.903 682.843 852.38 687.38 852.59C699.9 854.15 711.45 876.59 715.54 897.5C722.44 932.75 708.54 966.27 696.65 995.16C695.17 998.73 691.65 1007.09 686.65 1019.75C677.03 1044.42 678.78 1042.96 674.53 1052.19C663.01 1077.19 654.85 1077.75 652.07 1094.96C650.73 1103.29 650.65 1115.49 648.51 1115.63C647.43 1115.71 647.18 1112.63 644.11 1111.12C642.737 1110.52 641.238 1110.28 639.746 1110.4C638.254 1110.52 636.816 1111.02 635.56 1111.83C633.71 1113.09 633.66 1114.37 632.47 1114.45C630.13 1114.59 629.39 1109.71 626.77 1109.45C625.27 1109.3 624.71 1110.81 620.11 1115.15C617.59 1117.53 616.33 1118.72 614.65 1119.66C611.34 1121.52 610.35 1120.66 607.99 1122.28C604.31 1124.82 603.88 1128.87 602.99 1128.69C602.1 1128.51 601.33 1123.44 602.76 1118C605.14 1108.9 611.28 1107.17 615.11 1098.52C617.57 1092.97 617.39 1088.39 617.49 1083.78C618.14 1051.78 629.05 1045.42 625.09 1023.66C622.73 1010.66 618.84 1011.66 618.44 1000.85C617.7 980.98 630.44 966.27 627.94 964.5C626.03 963.11 617.72 971.73 614.4 974.95C577.04 1011.17 503.82 1010.15 481.69 1005.13C467.921 1001.75 453.485 1002.24 439.98 1006.56C408.73 1015.9 322.22 965.33 314.52 975.9C312.79 978.28 316.9 981.21 318.08 991.59C319.54 1004.42 314.72 1012.87 311.9 1021.53C304.76 1043.53 311.08 1065 313.81 1074.28C320.52 1097.14 336.18 1116.47 331.87 1120.85C331.017 1121.68 329.946 1122.26 328.78 1122.52C327.78 1122.69 325.24 1122.81 321.17 1118.95C314.61 1112.73 314.17 1105.76 311.67 1105.88C309.92 1105.97 310.06 1109.39 306.91 1111.35C303.56 1113.43 300.73 1111.21 296.46 1111.59C287.19 1112.4 282.23 1124.48 280.3 1123.47C278.9 1122.72 281.19 1116.12 281.96 1113.25C286.54 1096.25 273.25 1078.46 267.71 1070.25C240.79 1030.33 232.52 972.96 231.83 967.83C228.23 941.45 233.55 940.99 228.97 906.76C227.48 895.56 225.72 886.7 229.92 876.11C236.5 859.58 252.4 851.96 256.06 850.21C270.41 843.34 283.6 844.56 289.81 845.21C301.14 846.41 309.22 850.12 315.47 853.05C341.16 865.11 353.47 883.16 358.24 879.9C360.18 878.59 358.44 875.47 359.43 868.5C361.04 857.09 367.67 851.34 371.07 845.5C376.41 836.25 371.67 830.28 367.07 801.3C361.45 766.19 365.91 759.38 357.81 734.3C353.81 721.92 352.54 723.01 350.44 713.86C345.35 691.73 351.75 680.95 350.2 662.54C348.95 647.61 344.09 647.03 333.81 620.95C326.41 602.19 322.22 581.83 313.81 541.11C309.16 518.52 309.36 516.33 303.11 486.22C296.19 452.83 295.75 454.62 295.27 448.44C294.18 434.44 296.51 426.67 314.52 372.16C329.93 325.5 334.25 312.93 330.91 297.31C329 288.31 328.68 283.79 328.06 274.73C327.38 264.78 326.26 246.4 332.82 243.84C335.55 242.78 337.16 245.42 341.61 244.08C346.29 242.68 347.61 238.81 350.87 239.33C353.38 239.73 354.04 242.33 355.87 241.94C357.7 241.55 357.37 238.48 359.67 237.19C362.89 235.37 366.67 239.83 370.36 237.9C372.22 236.9 371.58 235.69 373.45 234.81C376.93 233.18 380.24 237.03 383.45 235.29C384.98 234.46 384.55 233.39 386.06 232.44C388.91 230.64 394.66 231.79 396.99 235.05C400.69 240.21 393.3 247.14 397.23 252.87C398.81 255.17 401.93 256.87 405.07 258.58C406.98 259.58 409.07 260.58 410.07 260.95C415.79 263.43 416.45 262.95 417.2 264.04C418.89 266.47 416.8 270.7 413.4 277.59C411.09 282.27 410.93 281.47 409.12 285.43C406.55 291.04 406.51 293.43 404.12 294.93C401.73 296.43 398.85 295.65 396.76 295.41C388.53 294.41 380.97 301.68 375.85 306.58C357.29 324.31 362.44 375.36 364.44 395.21C365.88 409.51 367.44 414.01 365.15 422.54C361.49 436.54 352.22 444.34 353.03 459.37C353.12 460.87 354.22 463.8 354.7 468.37C355.33 474.52 354.54 476.51 355.17 480.25C356.17 486.14 359.62 489.95 361.59 492.37C368.93 501.37 391.15 534.54 388.91 557.24C388.69 559.55 387.91 565.24 391.05 567.93C393.85 570.29 397.23 568.23 401.27 568.64C413.77 569.92 414.55 592.97 428.84 598.35C435.34 600.8 438.11 597.12 449.51 595.97C458.93 595.02 477.68 594.76 490.14 604.97C491.93 606.44 492.23 607.02 493.47 607.35C504.61 610.29 520.01 574.22 526.75 576.7Z" fill="#D37566"/>
<path id="Vector_6" d="M351.26 983.63C353.11 982.72 353.72 979.29 354.11 977.1C354.23 975.763 354.636 974.467 355.3 973.3C356.08 972.06 356.77 971.81 356.73 971.4C356.6 970.09 350.38 969.98 343.3 969.5C334.35 968.89 329.87 968.58 326.3 967.83C321.53 966.83 319.59 965.83 316.2 966.64C315.2 966.86 310.2 967.99 308.6 971.99C307.52 974.65 308.45 977.35 309.31 979.83C310.45 983.12 311.38 982.98 312.76 986.37C313.939 989.44 314.542 992.702 314.54 995.99C314.62 998.26 314.41 998.88 314.18 1003.12C313.9 1008.31 314.18 1008.67 313.94 1011.56C313.51 1016.02 312.63 1018.56 312.88 1018.68C313.13 1018.8 313.8 1016.28 316.2 1009.89C317.48 1006.51 317.98 1005.35 317.98 1003.36C317.98 1001.37 317.43 1000.91 317.51 998.61C317.6 995.67 318.51 995.49 318.58 992.9C318.558 990.761 318.07 988.652 317.15 986.72C316.22 984.45 315.76 984.53 314.78 981.97C313.48 978.6 313.83 977.33 314.18 976.62C314.486 976.041 314.937 975.551 315.49 975.2C316.73 974.43 318.06 974.74 319.65 974.96C323.65 975.52 323.4 974.74 326.3 975.32C328.72 975.8 328.21 976.21 331.89 977.32C335.08 978.32 335.89 978.13 339.01 979.22C339.68 979.45 339.76 979.51 342.7 980.76C349.78 983.81 350.49 984.02 351.26 983.63Z" fill="#A35F58"/>
<path id="Vector_7" d="M573.5 976.98C574.87 975.34 576.66 975.46 580.63 974.66C582.55 974.28 583.48 973.98 597.91 968.07C616.46 960.47 621.39 958.32 628.39 959.16C633.64 959.79 635.03 961.5 635.52 962.55C636.12 963.83 635.98 965.45 633.38 970.92C630.07 977.92 628.63 978.81 627.32 982.33C625.63 986.9 626.64 989.19 626.43 995.16C626.16 1002.94 624.21 1013.99 622.15 1014.05C620.37 1014.05 618.34 1005.91 618.23 1000.15C618.225 998.065 618.345 995.981 618.59 993.91C618.732 991.976 619.091 990.064 619.66 988.21C620.58 985.44 621.33 985.21 621.97 982.68C622.53 980.47 622.16 979.85 622.51 978.05C623.08 975.05 624.71 974.95 626.43 971.28C626.88 970.28 628.7 966.44 627.5 965.4C626.94 964.91 625.94 965.22 625.36 965.4C623.09 966.09 622.09 967.84 620.36 969.85C618.784 971.491 617.114 973.041 615.36 974.49C611.79 977.8 610 979.49 609.3 980.01C606.74 982.01 606.3 981.87 602.17 984.64C598.04 987.41 598.59 987.51 595.04 989.81C590.6 992.7 587.69 994.6 585.04 994.81C583.747 994.859 582.477 995.162 581.3 995.7C580.24 996.21 580.1 996.53 579.7 996.6C576.82 997.04 569.02 982.35 573.5 976.98Z" fill="#A35F58"/>
<path id="Vector_8" d="M375.68 305.99C374.91 305.2 371.76 306.77 369.8 308.49C368.074 310.102 366.784 312.125 366.05 314.37C364.451 318.368 363.141 322.475 362.13 326.66C360.52 333.56 359.71 337.01 359.28 339.66C358.204 346.757 357.729 353.933 357.86 361.11C357.86 363.74 357.86 370.94 358.75 381.78C360.45 402.7 362.49 401.78 361.6 409.41C361.35 411.5 358.6 419.41 353.04 435.25C350.9 441.39 349.14 446.25 348.59 453.25C348.51 454.25 348.37 456.4 348.77 465.01C349.29 476.27 349.55 481.9 350.19 484.79C350.79 487.5 354.38 503.67 363.74 506C366.03 506.57 369.31 506.48 369.8 505.29C370.13 504.47 368.96 503.52 367.3 500.83C366.366 499.217 365.534 497.547 364.81 495.83C362.03 490.36 359.68 490.71 357.5 486.39C356.25 483.91 356.01 481.17 355.5 475.69C355.1 471.07 355.5 470.57 355.14 466.25C354.59 460.25 353.56 459.2 353.36 455.91C353.1 451.62 354.64 449.74 358.88 440.59C363.71 430.19 366.14 424.87 366.88 419.02C367.362 414.573 367.305 410.083 366.71 405.65C366.11 399.46 365.12 396.85 364.21 388.55C363.91 385.82 363.78 383.7 363.5 379.46C362.69 367.04 362.21 359.79 362.79 350.23C363.02 346.23 363.42 342.16 364.03 337.93C365.19 329.93 365.77 325.93 367.6 321.18C371.27 311.84 376.81 307.16 375.68 305.99Z" fill="#A35F58"/>
<path id="Vector_9" d="M839.55 696.89C836.183 696.949 832.832 697.358 829.55 698.11C820.55 700.11 816.01 703.83 806.74 709.34C799.12 713.87 791.79 718.23 782.86 721.46C772.533 725.035 761.707 726.959 750.78 727.16C735.09 727.51 731.25 724.04 722.78 728.06C717.05 730.78 715.24 734.06 707.78 735.9C703.098 736.916 698.28 737.156 693.52 736.61C688.89 736.27 687.62 735.61 677.31 734.29C671.31 733.52 670.06 733.52 668.57 733.76C661.91 734.81 656.48 739.38 656.99 740.76C657.27 741.48 659.37 741.36 663.58 741.12C665.38 741.01 666.84 740.83 668.58 740.58C674.81 739.69 674.78 739.34 677.14 739.16C678.92 739.02 679.32 739.16 687.14 740.22C691.82 740.85 694.14 741.16 695.69 741.29C701.4 741.81 704.33 742.05 707.99 741.29C710.297 740.75 712.56 740.038 714.76 739.16C716.944 738.376 719.087 737.482 721.18 736.48C724.81 734.73 725.18 734.09 727.41 733.1C730.243 731.916 733.263 731.239 736.33 731.1C743.47 730.57 746.17 732.29 753.08 732.88C762.49 733.68 770.61 731.64 780.52 729.13C783.36 728.42 785.06 727.99 787.47 727.13C799.22 723.13 807.97 716.78 814.92 711.63C818.47 709 821.69 706.38 826.68 703.97C829.777 702.563 833.039 701.555 836.39 700.97C836.49 699.3 839.65 699.11 839.55 696.89Z" fill="#A35F58"/>
<path id="Vector_10" d="M529.12 582.41C530.46 583.08 530.26 585.41 530.55 588.7C530.67 590.07 530.6 588.52 532.81 599.4C534.69 608.67 534.64 609.31 535.54 611.16C536.71 613.56 538.25 616.7 541.6 618.53C544.36 620.03 546.96 619.89 547.06 620.9C547.14 621.64 545.81 622.21 543.06 623.75C537.13 627.05 536.88 627.99 535.58 627.75C534.98 627.66 533.3 627.2 529.64 616.82C527.11 609.66 525.85 605.98 525.84 601.26C525.84 597.43 526.55 597.17 526.19 593.65C525.67 588.42 523.75 585.88 525.19 583.79C526.12 582.55 528.02 581.85 529.12 582.41Z" fill="#A35F58"/>
<path id="Vector_11" d="M524.97 584.16C522.65 583.78 520.88 586.94 517.84 590.1C514.646 593.335 510.852 595.916 506.67 597.7C502.882 599.163 498.85 599.889 494.79 599.84C491.184 600.076 487.566 599.673 484.1 598.65C481.29 597.78 479.29 596.65 475.31 594.38C473.82 593.53 472.99 593 468.42 590.1C464.89 587.87 463.8 586.86 461.29 585.59C459.34 584.59 456.45 582.94 456.06 583.45C455.67 583.96 457.47 585.85 458.79 587.04C459.987 588.044 461.272 588.937 462.63 589.71C465.35 591.48 465.5 591.84 467.44 593.1C469.562 594.451 471.797 595.615 474.12 596.58C484.23 601.1 484.12 602.68 490.43 604.58C493.777 605.626 497.254 606.195 500.76 606.27C503.841 606.425 506.925 606.001 509.85 605.02C511.704 604.316 513.494 603.453 515.2 602.44C517.137 601.359 519.01 600.167 520.81 598.87C522.235 597.954 523.527 596.847 524.65 595.58C525.176 594.972 525.623 594.3 525.98 593.58C526.444 592.536 526.745 591.426 526.87 590.29C527.34 587.7 527.56 586.39 527.14 585.65C526.901 585.265 526.585 584.934 526.212 584.677C525.838 584.421 525.415 584.245 524.97 584.16V584.16Z" fill="#A35F58"/>
<path id="Vector_12" d="M521.85 585.64C521.85 585.21 522.41 585.02 523.33 584.52C524.53 583.86 524.33 583.84 525.56 583.15C526.168 582.72 526.872 582.446 527.61 582.35C528.16 582.35 529.09 582.55 529.36 583.21C529.476 583.516 529.476 583.854 529.36 584.16C529.36 584.33 529.15 584.71 528.36 585.38C527.728 585.883 527.027 586.294 526.28 586.6C525.86 586.779 525.42 586.907 524.97 586.98C524.522 587.079 524.058 587.079 523.61 586.98C523.45 586.98 523.52 586.98 522.87 586.71C522.44 586.57 522.35 586.55 522.24 586.45C522.116 586.355 522.017 586.232 521.949 586.091C521.881 585.951 521.847 585.796 521.85 585.64V585.64Z" fill="#A35F58"/>
</g>
<g id="Warstwa 9">
<path id="Vector_13" d="M287.46 291.91C285.638 294.421 283.969 297.039 282.46 299.75C279.35 304.96 277.8 307.56 276.76 309.75C274.282 315.138 272.831 320.94 272.48 326.86C272 331.86 271.01 342.39 276.04 353.95C280.09 363.25 286.04 368.57 293.51 375.34C298.78 380.09 302.89 383.72 309.51 386.34C316.13 388.96 321.39 389.2 328.76 389.55C336.76 389.92 342.76 390.21 350.14 387.76C357.52 385.31 362.23 381.41 366.14 378.14C373.699 372.171 379.72 364.48 383.7 355.71C386.848 348.635 388.549 341.002 388.7 333.26C388.76 328.66 388.89 322.2 385.85 314.72C384.462 311.421 382.664 308.31 380.5 305.46C374.124 297.008 365.969 290.06 356.61 285.11C351 282.18 338.61 275.88 322.03 276.91C313.957 277.471 306.08 279.655 298.87 283.33C295.27 285.22 291.1 287.42 287.46 291.91Z" fill="#3A3A3A"/>
<path id="Vector_14" d="M296.01 320.11C299.62 324.99 299.88 326.67 302.07 327.24C304.66 327.91 307.12 326.32 309.56 324.74C312.886 322.582 315.491 319.48 317.04 315.83C317.93 313.66 320.04 308.55 317.76 305.5C316.17 303.37 313.93 304.21 312.76 302.29C311.07 299.51 313.76 294.37 316.68 291.29C320.26 287.48 324.41 286.51 330.58 284.87C337.58 283 344.58 280.71 351.58 278.81C360.68 276.36 370 274.81 379.02 272.04C384.34 270.44 389.15 268.79 391.14 270.97C392.64 272.61 391.84 275.6 391.14 278.1C390.14 281.67 388.14 285.66 381.14 293.1C374.93 299.74 371.14 302.28 371.87 305.58C372.222 307.041 373.116 308.313 374.37 309.14C376.55 310.5 380.07 310.21 380.07 310.21C380.07 310.21 387.27 304.59 390.41 302.01C398.17 295.64 402.7 291.92 406.09 286.33C409.99 279.9 414.7 267.22 408.94 258.88C406.15 254.83 401.94 253.35 397.18 251.75C389.18 249.06 381 248.75 367.6 250.69C364.11 251.2 358.92 252.07 331.95 259.6C313.39 264.78 308.55 266.4 302.73 271C297.787 274.56 293.801 279.287 291.126 284.76C288.451 290.233 287.171 296.283 287.4 302.37C287.4 305.37 287.46 307.53 288.47 310.21C289.95 313.86 291.58 314.11 296.01 320.11Z" fill="#565656"/>
</g>
<g id="Warstwa 10">
<path id="Vector_15" d="M329.99 258.76C331.381 259.152 332.827 259.314 334.27 259.24C336.03 259.14 337.49 259.06 338.27 258.05C339.27 256.81 338.27 255.42 339.27 254.49C340.27 253.56 342.07 254.03 343.79 254.49C346.08 255.1 348.55 255.75 350.44 257.81C353.24 260.87 351.29 263.21 354.24 267.08C354.99 268.08 357.09 270.8 359.94 270.88C362.25 270.95 363.47 269.24 364.7 269.88C365.93 270.52 365 272.41 366.36 274.63C367.36 276.34 369.6 278.01 371.59 277.72C373.58 277.43 374.11 275.07 376.1 275.11C377.31 275.11 377.39 276 379.19 276.54C380.757 276.981 382.426 276.897 383.94 276.3C385.659 275.481 387.015 274.057 387.75 272.3C389.15 269.21 387.97 267.14 389.41 266.12C390.62 265.26 391.78 266.49 393.41 265.64C395.56 264.55 395.48 261.57 396.26 261.64C397.04 261.71 397.83 265.31 397.92 268.77C398 271.6 397.62 272.4 397.45 275.43C397.327 278.525 397.484 281.624 397.92 284.69C398.57 290.84 398.92 293.92 400.54 294.69C402.54 295.69 405.31 293.61 405.77 293.27C408.54 291.27 408.31 288.95 410.77 283.27C412.99 278.13 414.25 277.52 416.47 271.63C418.29 266.79 418.1 265.45 417.66 264.5C416.66 262.42 414.58 262.5 409.82 260.5C405.06 258.5 400.57 256.5 398.65 252.42C397.52 250.03 397.49 247.36 397.46 244.81C397.41 241.03 398.21 240.09 397.46 237.68C397.113 236.501 396.537 235.403 395.765 234.447C394.993 233.491 394.04 232.697 392.96 232.11C392.39 231.83 389.42 230.36 387.5 231.63C385.58 232.9 386.35 235.43 384.89 235.91C383.7 236.3 383.06 234.67 380.61 234.25C379.066 234.03 377.492 234.277 376.09 234.96C373.64 236.1 373.49 237.7 371.82 238.05C369.88 238.46 369.45 236.3 367.06 235.91C363.79 235.38 360.06 238.54 357.56 240.66C356.02 241.97 355.21 242.95 353.99 242.8C352.23 242.59 352.12 240.3 350.43 239.95C348.08 239.46 346.98 243.62 343.3 243.95C341.13 244.17 340.49 242.83 337.84 243.24C336.455 243.478 335.147 244.047 334.03 244.9C330.03 247.79 329.6 252.76 329.52 253.69C329.363 255.395 329.522 257.114 329.99 258.76V258.76Z" fill="#D37566"/>
<path id="Vector_16" d="M306.23 397.11C306.89 398.33 308.38 398.48 312.17 399.01C322.64 400.47 324.87 401.16 330.94 401.39C337.19 401.62 337.79 401.27 348.05 401.39C355.42 401.47 350.59 401.39 358.27 401.63C359.02 401.63 360.27 401.69 360.8 400.94C361.55 399.85 359.8 398.49 359.46 395.06C359.29 393.27 359.7 392.87 359.37 390.69C359.29 390.17 359.16 389.52 358.92 387.93C358.792 387.223 358.705 386.508 358.66 385.79C358.66 384.93 358.66 384.04 358.66 384.03C358.66 384.02 358.58 384.16 358.66 384.19C358.74 384.22 359.8 383.03 361.33 382.02C362.42 381.3 362.67 381.46 363.11 381.02C364.59 379.74 363.81 376.6 363.47 374.96C362.69 371.2 363.17 367.28 362.99 363.44C362.821 359.596 362.901 355.744 363.23 351.91C363.44 349.44 363.89 346.31 364.78 340.03C365.2 337.03 365.41 335.56 365.61 334.33C367.01 326.191 369.28 318.225 372.38 310.57C373.76 306.799 375.432 303.142 377.38 299.63C378.848 297.047 380.52 294.586 382.38 292.27C385.61 288.27 386.38 288.53 388.56 285.61C391.07 282.27 394.87 275.55 392.56 272.78C391.19 271.12 388.15 271.52 387.56 271.6C384.35 272.02 383.44 274.19 380.43 275.87C378.3 277.06 377.34 276.77 369.26 277.3C363.5 277.68 360.36 277.89 356.43 278.49C352.306 279.036 348.233 279.912 344.25 281.11C339.33 282.63 338.56 283.47 335.7 283.49C333.693 283.361 331.68 283.602 329.76 284.2C328.839 284.482 327.958 284.882 327.14 285.39C324.14 287.53 324.63 293.29 324.77 296.32C325.05 302.71 322.97 308.98 322.15 315.32C320.59 327.46 320.46 325.8 319.3 335.52C318.43 342.77 318.3 345.75 317.16 352.62C316.41 357.34 315.67 361.07 315.26 363.08C313.92 369.65 312.55 374.93 311.7 378.08C309.64 385.63 308.61 389.4 308.13 390.44C306.75 393.38 305.4 395.44 306.23 397.11Z" fill="#D37566"/>
<path id="Vector_17" d="M359.22 384.11C358.03 383.52 358.03 380.23 358.03 373.65C357.472 360.089 358.672 346.513 361.6 333.26C362.44 329.46 363.5 325.65 363.5 325.65C365 320.25 366.38 316.41 366.83 315.2C368.65 310.2 369.59 307.69 371.34 305.2C372.204 304.015 373.153 302.896 374.18 301.85C375.6 300.34 376.31 299.59 376.57 299.73C377.28 300.12 375.07 305.73 373.48 309.24C372.14 312.19 371.93 312.11 371.1 314.24C370.17 316.64 370.17 317.43 368.96 322.08C367.7 326.95 367.49 326.92 366.83 329.92C366.54 331.22 366.37 332.18 365.64 337.29C364.78 343.29 364.35 346.29 363.97 349.41C363.41 354.17 363.12 356.55 362.97 359.15C362.723 362.396 362.803 365.66 363.21 368.89C363.34 369.77 363.72 372.12 364.16 375.55C364.55 378.55 364.6 379.46 364.16 380.55C363.27 382.87 360.52 384.75 359.22 384.11Z" fill="#A35F58"/>
<path id="Vector_18" d="M383.07 272.93C384.697 272.789 386.292 272.398 387.8 271.77C388.68 271.4 388.92 271.2 390.47 270.53C391.29 270.17 392.16 269.84 393.86 269.19C397.1 267.95 396.53 268.19 397.69 267.76C399.6 266.97 399.75 266.76 400.18 266.87C401.78 267.28 402.18 270.7 402.41 272.22C402.81 275.35 402.16 275.69 402.32 278.99C402.54 283.52 403.86 284.54 402.86 286.39C401.86 288.24 399.93 288.14 399.56 289.95C399.19 291.76 400.67 292.53 400.09 293.95C399.95 294.31 399.59 294.95 397.42 295.95C395.868 296.63 394.259 297.169 392.61 297.56C388.76 298.66 389.28 299.36 386.46 299.96C384.21 300.44 382.18 300.87 379.95 300.05C378.57 299.54 377.5 298.68 376.66 299.16C376.405 299.361 376.2 299.618 376.062 299.911C375.923 300.204 375.854 300.526 375.86 300.85" fill="#D37566"/>
</g>
<g id="Warstwa 5">
<path id="Vector_19" d="M624.07 1022.52C620.44 1027.68 626.18 1030.76 626.01 1045.97C625.8 1065.51 616.26 1066.81 616.28 1086.49C616.28 1096.49 618.76 1101.85 614.34 1108.49C611.16 1113.28 607.71 1113.79 603.83 1119.86C603.02 1121.11 596 1132.29 599.93 1136.57C604.43 1141.46 617.93 1130.31 635.16 1131.24C641.172 1128.4 646.93 1125.06 652.37 1121.24C650.99 1111.8 656.07 1100.14 659.88 1091.41C669.77 1068.71 687.19 1054.65 687.88 1044.85C688.006 1041.03 688.937 1037.28 690.61 1033.85C692.07 1030.85 692.94 1030.56 692.94 1029.58C692.96 1021.71 634.74 1007.32 624.07 1022.52Z" fill="#E2E2E2"/>
<path id="Vector_20" d="M246.29 1013.16C249.02 1008.16 259.54 1010.71 281.22 1012.45C304.73 1014.33 313.93 1013.18 316.87 1018.86C318.4 1021.86 316.46 1023.8 315.2 1031.69C313.68 1041.28 314.76 1048.6 315.91 1056.41C316.47 1060.14 317.59 1066.08 327.08 1089.41C330.08 1096.82 335.08 1103.56 338.25 1115.55C340.33 1123.31 340.03 1126.13 338.49 1127.66C335.95 1130.2 331.74 1127.56 316.63 1125.76C308.57 1124.76 309.63 1125.54 302.85 1124.58C298.02 1123.89 294.49 1123.1 289.54 1123.86C285.61 1124.47 284.54 1126.23 283.36 1125.53C280.53 1123.82 285.47 1114.16 285.74 1104.38C285.86 1099.91 285.02 1095.1 274.57 1076.81C272.45 1073.1 254.43 1041.69 246.57 1019.55C245.98 1018.04 245.08 1015.39 246.29 1013.16Z" fill="#E2E2E2"/>
<path id="Vector_21" d="M241.84 1012.98C244.57 1007.98 255.08 1010.53 276.77 1012.27C300.27 1014.16 309.48 1013 312.41 1018.68C313.94 1021.68 312 1023.62 310.75 1031.52C309.22 1041.1 310.3 1048.42 311.46 1056.23C312.01 1059.96 313.13 1065.9 322.63 1089.23C325.63 1096.64 330.63 1103.39 333.8 1115.37C335.87 1123.13 335.57 1125.95 334.03 1127.49C331.5 1130.02 327.28 1127.38 312.17 1125.58C304.17 1124.58 305.17 1125.36 298.39 1124.4C293.57 1123.71 290.04 1122.92 285.08 1123.68C281.15 1124.29 280.08 1126.05 278.9 1125.35C276.08 1123.64 281.01 1113.99 281.28 1104.2C281.4 1099.73 280.56 1094.92 270.11 1076.63C267.99 1072.92 249.97 1041.52 242.11 1019.37C241.53 1017.87 240.62 1015.21 241.84 1012.98Z" fill="white"/>
<path id="Vector_22" d="M622.25 1014.17C633.25 998.76 693.32 1013.35 693.32 1021.38C693.32 1022.38 692.42 1022.7 690.91 1025.7C689.184 1029.18 688.226 1032.99 688.1 1036.87C687.4 1046.8 669.4 1061.11 659.19 1084.11C654.37 1094.99 647.56 1110.34 653.57 1120.5C654.3 1121.73 656.57 1125.25 655.18 1126.98C653.18 1129.39 645.18 1126.73 642.33 1125.9C620.44 1119.57 602.72 1135.61 597.33 1129.9C593.27 1125.56 600.51 1114.23 601.33 1112.96C605.33 1106.82 608.9 1106.3 612.17 1101.44C616.73 1094.67 614.17 1089.22 614.17 1079.1C614.17 1059.15 623.99 1057.84 624.17 1038.03C624.4 1022.52 618.51 1019.41 622.25 1014.17Z" fill="white"/>
</g>
<g id="Warstwa 6">
<path id="Vector_23" d="M298.87 847.6C298.8 848.53 304.21 848.54 311.7 851.52C319.629 854.525 326.631 859.555 332.01 866.11C339.34 875.27 341.08 884.91 342.01 890.35C342.96 895.99 341.11 898.35 342.73 903.89C344.56 910.13 347.5 911.69 350.21 917.08C353.36 923.35 351.45 925.38 353.06 937.75C355.42 955.88 360.37 958.08 358.06 967.69C357.59 969.69 355.84 973.69 352.36 981.59C349.18 988.84 347.6 992.46 346.3 994.43C339.12 1005.31 327.77 1008.32 328.48 1010.11C329.07 1011.62 336.41 1007.57 345.23 1010.11C349.85 1011.44 349.59 1013.05 359.85 1019.38C366.79 1023.66 370.35 1025.82 374.46 1026.51C379.89 1027.42 381.34 1025.77 388 1026.51C392.313 1027.05 396.514 1028.27 400.45 1030.11C412.45 1034.96 423.77 1026.21 441.8 1024.41C469.19 1021.67 476.65 1038.53 493.8 1030.82C498.01 1028.93 505.23 1024.48 516.25 1024.05C521.02 1023.86 522.15 1024.6 526.25 1024.76C541.86 1025.39 546.45 1015.46 561.18 1012.64C577.7 1009.49 589.79 1018.56 591.84 1014.78C593.06 1012.53 588.57 1009.61 582.92 1000.53C580.14 996.04 573.03 984.31 572.59 969.87C572.54 968.39 573.27 963.28 574.73 953.12C576.64 939.8 577.59 933.12 578.65 927.81C580.65 917.59 582.78 910.26 585.42 901.08C588.85 889.14 590.57 883.16 592.9 878.63C596 872.63 601.09 862.71 611.44 856.88C621.79 851.05 632.52 852.11 632.44 851.54C632.36 850.97 623.04 849.66 611.77 852.25C595.26 856.04 580.62 866.88 571.49 873.63C567.31 876.73 560.73 881.9 551.88 881.83C548.62 881.83 548.17 881.09 544.4 880.76C535.12 879.95 529.21 883.53 521.59 886.11C519.34 886.87 511.3 887.8 495.21 889.67C479.34 891.52 471.4 892.44 465.27 892.53C459.93 892.6 458.33 892.33 437.83 890.39C423.31 889.01 408.83 886.79 394.34 885.75C380.73 884.75 372.63 884.75 366.54 878.63C364.4 876.46 361.11 872.14 359.41 872.92C357.71 873.7 359.68 878.58 357.98 879.69C356.28 880.8 351.28 877.83 329.83 857.24C324.68 852.3 321.83 849.45 316.64 847.62C308.08 844.54 298.95 846.39 298.87 847.6Z" fill="#1E1E1E"/>
<path id="Vector_24" d="M326.49 1009.24C328.49 1009.55 330.15 1008.68 333.44 1006.92C336.251 1005.61 338.836 1003.87 341.1 1001.75C342.93 999.96 344.52 997.17 347.7 991.6C350.28 987.05 348.27 989.76 350.37 985.71C350.79 984.91 351.05 984.46 350.9 983.93C350.51 982.44 347.5 982.4 343.9 981.61C340.07 980.77 341.08 980.26 333.57 977.69C330.77 976.69 332.86 977.57 324.66 975.2C322.653 974.53 320.527 974.288 318.42 974.49C315.88 974.78 315.09 975.63 314.85 975.91C314.61 976.19 313.85 977.21 314.14 979.65C314.46 982.65 315.81 983.65 316.99 986.43C318.172 989.365 318.662 992.534 318.42 995.69C318.22 999.12 317.24 1000.87 318.42 1003.18C318.967 1004.14 319.693 1004.99 320.56 1005.67C322.01 1006.99 323.99 1008.85 326.49 1009.24Z" fill="black"/>
<path id="Vector_25" d="M591.86 1013.69C592.686 1014.31 593.608 1014.8 594.59 1015.12C595.75 1015.54 596.36 1015.55 599.22 1015.83C603.58 1016.27 604.39 1016.46 605.76 1015.95C606.504 1015.62 607.216 1015.22 607.89 1014.76C609.226 1013.95 610.5 1013.03 611.7 1012.03C612.09 1011.7 612.7 1011.16 615.02 1008.82C618.13 1005.68 618.27 1006.09 618.59 1005.14C619.02 1003.87 618.44 1003.45 618.23 1000.14C618.23 1000.14 618.13 998.48 618.23 996.46C618.393 994.031 618.874 991.634 619.66 989.33C622.96 978.41 621.66 979.14 623.22 976.61C623.98 975.4 626.8 971.19 627.5 968.61C627.694 967.792 627.814 966.959 627.86 966.12C627.95 964.85 627.99 964.12 627.62 963.86C627.25 963.6 626.09 964.42 625.48 964.93C624.48 965.8 620.32 969.13 620.01 969.45C619.36 970.12 617.48 971.88 613.72 975.39C611.42 977.53 609.1 979.69 606.35 981.8C603.113 984.1 599.74 986.204 596.25 988.1C589.12 992.25 585.55 994.33 583.78 994.52C582.78 994.62 580.78 994.73 580.33 995.82C580.06 996.54 580.65 997.32 581.52 998.56C583.07 1000.76 584.42 1003.09 585.91 1005.33C587.53 1007.75 588.34 1008.96 588.91 1009.84C589.621 1011.31 590.625 1012.62 591.86 1013.69Z" fill="black"/>
</g>
<g id="Warstwa 7">
<path id="Vector_26" d="M693.56 676.03C692.773 674.101 691.645 672.329 690.23 670.8C684.8 665.35 677.29 666.92 669.32 665.58C664.04 664.68 658.32 661.02 646.98 653.69C629.77 642.6 627.9 637.36 618.98 636.59C610.8 635.88 610.53 640.09 601.4 639.44C599.4 639.29 593.55 638.66 575.74 627.56C566.16 621.56 565.01 616.56 559.58 616.62C555.36 616.62 554.06 619.21 546.27 623.75C540.181 627.329 533.625 630.048 526.79 631.83C518.477 633.691 509.838 633.53 501.6 631.36C495.24 629.78 485.05 627.25 478.95 620.81C479.13 621.56 479.3 622.33 479.44 623.11C479.3 622.33 479.13 621.56 478.95 620.81C477.503 619.307 476.323 617.569 475.46 615.67C474.569 613.462 473.993 611.139 473.75 608.77C468.54 600.31 461.22 593.26 456.4 584.04C453.322 582.8 450.161 581.777 446.94 580.98C436.15 577.98 435.94 581.11 429.84 578.61C420.7 574.87 421.31 568.54 410.11 562.45C402.52 558.32 401.43 560.79 398.23 557.69C389.91 549.69 399.5 535.09 392.05 520.15C389.47 515.404 385.808 511.334 381.36 508.27C358.4 493.11 312.16 513.19 308.61 535.36C308.16 538.15 308.7 539.07 310.98 550.09C315.35 571.09 315.17 576.26 317.64 588.59C322.24 611.59 329.64 627.75 333.32 637.06C352.73 686.51 332.91 722.6 343.42 803.4C346.422 826.258 351.309 848.828 358.03 870.88C360.162 874.638 363.272 877.748 367.03 879.88C369.253 881.075 371.665 881.88 374.16 882.26C389.16 884.72 416.74 885.9 436.42 889.39C449.62 891.73 447.72 893.07 455.9 893.66C471.08 894.76 475.32 889.97 495.35 888.91C507.5 888.27 508.66 889.91 518.16 888.44C530.16 886.6 537.77 886.2 541.92 880.83C546.36 875.1 543.46 868.77 543.35 858.02C543.24 846.67 546.92 837.94 554.28 820.48C563.69 798.14 575.2 783.13 584.22 771.53C598.22 753.53 607.5 749.45 612.74 740.16C615.106 736.148 618.355 732.729 622.24 730.16C624.38 728.76 626.14 727.65 628.42 727.78C632.29 728.01 633.89 731.59 638.42 735.39C641.806 738.14 645.675 740.232 649.83 741.56C667.03 746.37 700.8 693.98 693.56 676.03Z" fill="#BA4D02"/>
<path id="Vector_27" d="M357.68 866.49C358.54 865.58 362.03 869.01 369.8 871.49C376.21 873.49 381.19 873.49 385.48 873.62C395.43 873.89 385.48 874.39 416.13 876.48C445.58 878.48 460.3 879.48 476.01 879.33C513.41 878.96 526.12 883.49 532.33 875.05C534.89 871.58 533.88 869.65 535.9 857.23C538.35 842.13 542.06 831.32 545.52 821.23C549.22 810.43 554.52 795.09 565.84 778.46C578.21 760.33 583.12 762.17 594.71 743.53C598.252 737.848 602.57 732.688 607.54 728.2C617.14 719.5 622.99 718.99 625 718.93C629.02 718.922 632.965 720.022 636.4 722.11C647.1 727.89 653.17 739.92 651.4 741.71C650.09 743.02 643.89 739.61 639.99 736.37C635.18 732.37 634.39 729.08 630.73 728.17C626.89 727.17 623.26 729.71 621.82 730.66C617.82 733.29 616.35 736.72 614.69 739.58C611.1 745.71 607.94 747.05 600.79 753.83C593.27 760.95 588.61 767.19 580.47 778.07C573.4 787.52 567.15 795.88 560.87 808.37C557.33 815.37 559.67 812.04 549.82 835.1C546.97 841.75 545.67 844.63 545.18 849.36C544.48 856.18 546.31 858.75 545.9 867.18C545.57 873.76 545.39 877.43 543.4 880.72C539.24 887.6 529.7 888.65 512.03 890.35C497.03 891.79 494.39 890.35 481.03 892.49C470.92 894.14 471.16 895.21 464.64 895.69C453.97 896.49 449.64 893.93 434.7 891.06C423.42 888.82 411.975 887.509 400.48 887.14C384.48 886.71 380.97 888.78 373.75 885.36C362.4 880.03 356.29 867.96 357.68 866.49Z" fill="#A34200"/>
<path id="Vector_28" d="M684.4 667.11C682.21 668.53 686.25 675.03 685.83 683.68C685.64 687.39 684.04 691.14 680.83 698.48C676.06 709.4 673.68 714.86 669.6 719.48C664.849 724.696 659.317 729.143 653.2 732.66C648.2 735.37 643.55 736.97 643.76 739.08C643.97 741.19 648.43 742.17 648.93 742.29C651.556 742.833 654.284 742.586 656.77 741.58C661.366 739.787 665.462 736.913 668.71 733.2C674.37 727.14 679.3 721.86 685.1 712.2C691.43 701.63 693.48 694.67 694.01 692.77C696.7 683.24 695.79 678.39 694.55 675.31C693.539 672.538 691.664 670.164 689.2 668.54C687.88 667.69 685.59 666.26 684.4 667.11Z" fill="#F2680A"/>
<path id="Vector_29" d="M310.27 545.58C312.27 546 313.69 541.04 318.35 535.83C321.63 532.17 326.12 529.83 334.98 525.38C347.04 519.28 353.07 516.23 359.7 515.87C364.754 515.708 369.805 516.271 374.7 517.54C379.34 518.61 382.61 519.37 386.58 521.54C390.75 523.85 393 526.27 393.94 525.54C394.88 524.81 393.61 521.13 392.52 518.89C388.39 510.38 380.19 506.34 378.02 505.35C369.35 501.35 361.5 502.11 354.97 502.73C344.887 503.775 335.197 507.203 326.7 512.73C322.897 515.118 319.378 517.929 316.21 521.11C313.852 523.324 311.848 525.887 310.27 528.71C309.104 530.685 308.302 532.853 307.9 535.11C307.23 539.43 308.19 545.11 310.27 545.58Z" fill="#F2680A"/>
<path id="Vector_30" d="M563.76 615.94H563.57C560.876 615.579 558.135 616.053 555.72 617.3C549.92 620.07 543.64 622.05 538.23 625.47C525.62 633.47 498.05 628.72 482.23 615.94C472.67 608.22 462.15 593.36 461 588.38C460.695 587.018 460 585.774 459 584.8C457.12 583 453.73 581.95 452.39 582.93C449.24 585.26 456.98 599.45 458.64 602.5C464.87 613.93 468.89 621.3 477.91 628.02C493.91 639.9 512.04 639.74 517.17 639.59C525.19 639.173 533.116 637.666 540.73 635.11C550.35 631.9 550.33 629.91 558.04 627.97C560.702 627.304 563.196 626.088 565.36 624.4C566.446 623.599 567.418 622.653 568.25 621.59C567.985 620.367 567.443 619.221 566.664 618.241C565.886 617.261 564.892 616.474 563.76 615.94V615.94Z" fill="#F2680A"/>
</g>
<g id="Warstwa 4">
<path id="Vector_31" d="M331.9 1121.81C335.9 1125.37 336.65 1130.81 337.12 1134.41C337.64 1138.33 337.07 1141.78 335.93 1148.66C334.38 1158.06 332.71 1161.34 334.75 1165.06C335.755 1166.62 336.551 1168.3 337.12 1170.06C337.8 1172.33 338.41 1174.34 337.84 1175.76C335.76 1180.96 319.08 1175.97 315.74 1182.18C314.42 1184.63 316.29 1186.75 314.31 1190.5C313.1 1192.65 311.28 1194.39 309.08 1195.5C300.27 1200.44 284.67 1193.4 265.08 1193.12C251.73 1192.93 242.08 1195.97 239.66 1191.46C239.23 1190.65 239.27 1190.04 239.66 1181.95C240.12 1172.24 240.11 1172.27 240.13 1172.21C240.87 1169.87 242.91 1166.21 267.22 1154.63C270.51 1153.05 270.54 1153.08 271.02 1152.72C278.66 1146.99 273.55 1136.22 280.29 1123.72C282.19 1120.2 285.11 1114.79 290.29 1113.72C295.72 1112.63 299.13 1117.29 303.6 1115.39C308.32 1113.39 308.25 1106.61 310.96 1106.6C313.5 1106.6 313.3 1112.49 318.33 1116.6C323.36 1120.71 327.27 1117.74 331.9 1121.81Z" fill="#EF8E5E"/>
<path id="Vector_32" d="M333.32 1162.68C329.88 1160.84 325.57 1163.13 318.83 1166.68C315.25 1168.59 313.47 1169.54 311.93 1171.44C307.93 1176.44 310.44 1181.09 308.61 1184.27C301.84 1195.98 242.16 1176.17 239.7 1182.37C239.444 1183.46 239.284 1184.57 239.22 1185.69C239.05 1187.49 238.78 1190.45 239.22 1191.63C240.52 1195.12 251.44 1192.52 263.46 1193.06C274.32 1193.54 278.91 1196.27 295.06 1197.57C299.167 1197.76 303.275 1197.2 307.18 1195.91C312.87 1194.05 313.98 1191.91 314.31 1191.16C315.25 1188.9 313.83 1187.83 314.55 1185.46C315.91 1180.98 322.62 1179.28 323.55 1179.04C330.04 1177.39 333.55 1180.36 336.14 1177.85C337.86 1176.16 337.69 1173.38 337.57 1171.44C337.55 1170.71 337.18 1164.75 333.32 1162.68Z" fill="#C17656"/>
<path id="Vector_33" d="M601.23 1124.36C600.35 1125.14 599.23 1126.5 598.28 1138.43C596.96 1155.28 599 1155.33 596.81 1160.59C595.187 1164.43 594.071 1168.46 593.49 1172.59C593.15 1174.99 593.19 1176.17 593.86 1177.16C596.16 1180.56 604.1 1179.21 606.39 1178.92C620.02 1177.18 626.56 1188.3 648.77 1195.8C648.77 1195.8 678.45 1205.8 706.26 1194.04C707.568 1193.54 708.713 1192.69 709.57 1191.58C712.57 1187.49 709.71 1181.01 708.47 1178.21C707.53 1176.1 704.78 1170.55 697.78 1164.85C689.49 1158.09 685.98 1160.4 676.41 1154.64C669.033 1150.21 662.85 1144.04 658.4 1136.67C654.676 1130.26 652.416 1123.11 651.78 1115.72C651.778 1115.67 651.778 1115.62 651.78 1115.57C651.48 1112.89 646.78 1110.23 642.93 1110.29C638.03 1110.36 637.49 1114.67 632.61 1114.86C628.39 1115.02 626.97 1111.86 623.77 1112.75C620.88 1113.54 621.15 1116.34 618.24 1119.08C612.8 1124.16 605.92 1120.2 601.23 1124.36Z" fill="#EF8E5E"/>
<path id="Vector_34" d="M598.03 1159.36C601.23 1158.16 603.7 1160.85 615.62 1168.36C618.62 1170.22 626.62 1175.36 633.68 1178.81C635.3 1179.62 645.34 1184.51 655.54 1186.42C681.26 1191.22 699.23 1175.42 705.91 1183.09C706.793 1184.22 707.385 1185.54 707.635 1186.95C707.884 1188.36 707.783 1189.81 707.34 1191.17C706.85 1192.62 705 1196.46 688.81 1199.72C677.3 1202.04 669.43 1203.62 658.87 1201.62C650.796 1199.98 643.072 1196.93 636.05 1192.62C630.05 1189.1 623.82 1185.96 617.99 1182.17C615.26 1180.39 613.6 1179.17 610.87 1178.84C605.18 1178.09 602.21 1181.84 598.03 1180.27C595.03 1179.11 593.72 1176.05 593.28 1175.04C590.73 1169.11 593.56 1161.03 598.03 1159.36Z" fill="#C17656"/>
</g>
<g id="Warstwa 8">
<path id="Vector_35" d="M443.97 472.76C447.73 465.94 454.36 461.07 455.09 460.54C458.35 458.18 459.24 458.31 464.68 454.9C472.59 449.9 473.6 447.9 477.81 445.5C484.57 441.69 491.43 441.72 498.01 441.74C510.289 441.869 522.255 445.63 532.4 452.55C538.475 456.396 543.643 461.514 547.55 467.55C550.079 471.618 551.952 476.059 553.1 480.71C556.21 493.33 552.88 503.77 550.1 512.21C547.38 520.38 543.1 529.06 541.52 528.66C540.11 528.31 541.73 521.06 541.01 507.04C540.45 496.04 539.1 493.31 537.01 491.53C533.3 488.42 529.63 490.31 522.87 489.18C508.1 486.7 507.73 474.68 492.57 470.84C490.44 470.3 480.34 467.98 471.36 472.72C466.72 475.17 464.36 478.44 459.74 484.95C456.43 489.59 452.52 495.05 451.15 502.81C450.61 505.93 450.99 506.46 450.15 512.21C449.31 517.96 448.36 524.4 447.15 524.43C444.92 524.49 442.91 503.62 442.61 500.43C440.48 479.89 442.74 475 443.97 472.76Z" fill="#141414"/>
</g>
</g>
</g>
<defs>
<clipPath id="clip0">
<rect width="1167.04" height="1440.67" fill="white"/>
</clipPath>
</defs>
</svg>
