<svg id="Warstwa_1" data-name="Warstwa 1" xmlns="http://www.w3.org/2000/svg" xmlns:xlink="http://www.w3.org/1999/xlink" viewBox="0 0 267.12 193.25"><defs><style>.cls-1{fill:url(#Gradient_bez_nazwy_9);}.cls-2,.cls-3{fill:#0085ad;}.cls-2{opacity:0.44;}.cls-3{opacity:0.6;}.cls-4{fill:#fff;}</style><linearGradient id="Gradient_bez_nazwy_9" y1="96.5" x2="267" y2="96.5" gradientUnits="userSpaceOnUse"><stop offset="0" stop-color="#30c39e"/><stop offset="0.32" stop-color="#2ec3a1"/><stop offset="0.53" stop-color="#28c2aa"/><stop offset="0.71" stop-color="#1ec0b9"/><stop offset="0.87" stop-color="#0fbece"/><stop offset="1" stop-color="#00bce4"/></linearGradient></defs><title>grafika4</title><polyline class="cls-1" points="0 129.1 0 0 267 0 267 193 0 193 0 129.1"/><polygon class="cls-2" points="0.12 66.25 18.06 51.25 45.95 72.25 84.81 80.25 101.74 48.25 116.69 64.25 141.59 35.25 170.49 71.25 194.4 43.25 203.36 58.25 228.27 27.25 267.12 69.25 267.12 192.25 1.12 193.25 0.12 66.25"/><polygon class="cls-3" points="0.12 106.25 21.12 74.25 57.12 112.25 65.12 92.25 96.12 152.25 116.12 104.25 127.12 124.25 150.12 66.25 171.12 103.25 186.12 85.25 215.12 129.25 231.12 82.25 242.12 98.25 267.12 38.25 267.12 193.25 0.12 193.25 0.12 106.25"/><circle class="cls-4" cx="17.62" cy="51.75" r="1.5"/><circle class="cls-4" cx="45.62" cy="72.75" r="1.5"/><circle class="cls-4" cx="83.62" cy="79.75" r="1.5"/><circle class="cls-4" cx="101.62" cy="48.75" r="1.5"/><circle class="cls-4" cx="115.62" cy="63.75" r="1.5"/><circle class="cls-4" cx="170.62" cy="70.75" r="1.5"/><circle class="cls-4" cx="140.62" cy="35.75" r="1.5"/><circle class="cls-4" cx="194.62" cy="43.75" r="1.5"/><circle class="cls-4" cx="202.62" cy="57.75" r="1.5"/><circle class="cls-4" cx="227.62" cy="27.75" r="1.5"/></svg>