<svg width="395" height="401" viewBox="0 0 395 401" fill="none" xmlns="http://www.w3.org/2000/svg">
<g id="grfika2.1 1" clip-path="url(#clip0)">
<g id="bar-lines">
<path id="Vector" d="M43.8401 150.78C65.1031 150.78 82.3401 117.586 82.3401 76.64C82.3401 35.6936 65.1031 2.5 43.8401 2.5C22.5771 2.5 5.34009 35.6936 5.34009 76.64C5.34009 117.586 22.5771 150.78 43.8401 150.78Z" stroke="#FF7F00" stroke-width="5" stroke-miterlimit="10"/>
<path id="Vector_2" d="M286.228 82.3311L120.383 65.5791L120.098 68.4006L285.943 85.1526L286.228 82.3311Z" fill="#FF7F00"/>
<path id="Vector_3" d="M288.655 113.318L121.975 96.5632L121.69 99.3989L288.37 116.153L288.655 113.318Z" fill="#FF7F00"/>
<path id="Vector_4" d="M349.66 179.41C373.022 179.41 391.96 146.216 391.96 105.27C391.96 64.3236 373.022 31.13 349.66 31.13C326.298 31.13 307.36 64.3236 307.36 105.27C307.36 146.216 326.298 179.41 349.66 179.41Z" stroke="#FF7F00" stroke-width="5" stroke-miterlimit="10"/>
<path id="Vector_5" d="M107.65 140.09C117.31 148.71 140.53 171.92 145.43 207.81C146.646 216.799 146.646 225.911 145.43 234.9" stroke="#FF7F00" stroke-width="2" stroke-miterlimit="10"/>
<path id="Vector_6" d="M251.89 231.57C252.547 236.347 252.466 241.197 251.65 245.95C249.65 257.24 244.43 261.77 246.18 265.31C247.65 268.31 253.85 270.19 273.75 266.31" stroke="#FF7F00" stroke-width="2" stroke-miterlimit="10"/>
<path id="Vector_7" d="M288.72 326.86C282.016 332.223 275.703 338.058 269.83 344.32C260.49 354.32 259.83 357.32 260.2 359.65C261.43 367.23 274.33 370.42 275.53 370.65" stroke="#FF7F00" stroke-width="2" stroke-miterlimit="10"/>
</g>
<g id="bar">
<path id="Vector_8" d="M64.25 28.66C64.79 27.95 65.67 27.85 67.73 27.66C71.32 27.36 73.12 27.21 74.05 27.21C76.3151 27.1949 78.5792 27.3151 80.83 27.57C83.8079 27.8181 86.7418 28.4466 89.56 29.44C91.4475 30.1668 93.265 31.0639 94.99 32.12C101.06 35.93 104.29 42.12 106.04 45.57C110.24 53.83 111.04 61.29 111.66 67.05C112.05 70.71 112.06 74.05 112.1 77.29C112.264 81.5451 112.117 85.8064 111.66 90.04C111.135 94.2825 110.18 98.4607 108.81 102.51C106.927 107.778 104.315 112.757 101.05 117.3C98.25 121.41 95.65 125.14 90.98 128.71C88.53 130.59 85.9 132.55 81.98 133.34C80.51 133.64 81.24 133.34 74.14 133.61C70.14 133.79 68.55 133.97 66.39 133.17C65.0539 132.626 63.7962 131.906 62.65 131.03C60.32 129.42 57.85 127.21 58.1 126.84C58.35 126.47 62.22 129.74 68.17 130.22C70.2052 130.542 72.2903 130.264 74.17 129.42C75.47 128.78 76.31 127.93 79.17 124.17C81.5 121.09 82.67 119.56 83.54 118.17C89.75 108.48 92.81 94.65 92.81 94.65C95.27 83.53 97.39 73.91 93.61 63.73C92.0088 59.8276 90.1307 56.0446 87.99 52.41C83.73 44.7 81.54 42.46 80.69 41.63C78.14 39.15 75.87 36.93 72.13 35.57C68.56 34.28 65.78 34.57 64.47 32.27C63.81 31.19 63.53 29.57 64.25 28.66Z" fill="black"/>
<path id="Vector_9" d="M68.7901 134.38C84.9333 134.38 98.0201 110.575 98.0201 81.21C98.0201 51.8451 84.9333 28.04 68.7901 28.04C52.6468 28.04 39.5601 51.8451 39.5601 81.21C39.5601 110.575 52.6468 134.38 68.7901 134.38Z" fill="#353535"/>
<path id="Vector_10" d="M319.82 56.66C322.56 55.43 325.13 55.66 327.82 55.95C333.96 56.58 337.03 56.9 337.17 56.95C340.709 57.7437 344.13 58.9907 347.35 60.66C349.73 61.8315 351.971 63.2672 354.03 64.94C360.47 70.35 362.66 77.6499 364.1 82.4899C365.361 86.8415 366.08 91.3322 366.24 95.86C366.38 98.59 366.31 100.79 366.24 102.54C366.129 106.665 365.712 110.777 364.99 114.84C364.17 119.41 363.46 123.4 361.25 128.29C359.648 131.801 357.612 135.096 355.19 138.1C351.698 142.627 347.297 146.374 342.27 149.1C336.75 152.294 330.278 153.431 324 152.31C318.76 151.7 318.24 150.58 318.12 150.26C317.73 149.17 318.79 148.26 319.55 146.34C320.7 143.41 319.84 141.43 319.73 138.59C319.57 134.54 321.2 131.31 324.45 124.87C325.915 121.961 327.586 119.16 329.45 116.49C339.87 101.31 319.45 61.2199 320.9 60.6199C321.18 60.4999 321.99 62.0099 322.68 61.7799C323.37 61.5499 323.68 59.3799 322.95 58.8399C322.673 58.6947 322.35 58.6625 322.05 58.7499C320.19 58.9799 318.05 58.54 317.95 58.04C317.85 57.54 318.88 57.1 319.82 56.66Z" fill="#180760"/>
<path id="Vector_11" d="M325.96 152.2C344.368 152.2 359.29 130.656 359.29 104.08C359.29 77.504 344.368 55.96 325.96 55.96C307.552 55.96 292.63 77.504 292.63 104.08C292.63 130.656 307.552 152.2 325.96 152.2Z" fill="#353535"/>
<path id="Vector_12" d="M3.56006 69.98L382.34 105.63V111.81L3.56006 76.64V69.98Z" fill="#7F7F7F"/>
<path id="Vector_13" d="M53.02 73.08C53.13 73.24 53.31 73.15 53.74 73.39C53.9505 73.5126 54.1453 73.6604 54.32 73.83C54.5794 74.0954 54.8014 74.3948 54.98 74.72C55.5341 75.9112 55.8532 77.198 55.92 78.51C56.118 80.1861 55.8408 81.884 55.12 83.41C54.65 84.28 54.05 85.41 53.12 85.55C53.0337 85.5528 52.949 85.5738 52.8714 85.6117C52.7938 85.6496 52.7252 85.7036 52.67 85.77C52.67 85.88 52.53 86.17 53.43 87.24C54.33 88.31 54.69 88.76 55.35 88.98C56.0485 89.2019 56.8028 89.1701 57.48 88.89C58.4362 88.4699 59.1998 87.7062 59.62 86.75C60.0835 85.6845 60.3997 84.5609 60.56 83.41C60.64 83.01 60.74 82.55 60.83 82.03C61.2489 79.8031 61.2182 77.515 60.74 75.3C60.5246 74.3028 60.1641 73.3426 59.67 72.45C59.1721 71.3704 58.2765 70.5249 57.17 70.09C56.5594 69.8918 55.8992 69.9095 55.3 70.14C54.8836 70.3356 54.5072 70.6069 54.19 70.94C53.9199 71.1779 53.6783 71.4464 53.47 71.74C53.27 72.09 52.81 72.75 53.02 73.08Z" fill="#686868"/>
<path id="Vector_14" d="M315.79 105.85C316.685 105.85 317.41 104.386 317.41 102.58C317.41 100.774 316.685 99.3101 315.79 99.3101C314.895 99.3101 314.17 100.774 314.17 102.58C314.17 104.386 314.895 105.85 315.79 105.85Z" fill="#686868"/>
<path id="Vector_15" d="M316.16 99.3601C316.16 99.5001 316.4 99.5 316.67 99.84C316.845 100.081 316.974 100.352 317.05 100.64C317.235 101.098 317.357 101.579 317.41 102.07C317.449 102.524 317.429 102.981 317.35 103.43C317.313 103.904 317.191 104.368 316.99 104.8C316.814 105.107 316.606 105.396 316.37 105.66C315.7 106.5 315.51 106.56 315.54 106.76C315.57 106.96 315.77 107.02 317.54 107.59C318.024 107.809 318.549 107.922 319.08 107.92C319.44 107.85 319.67 107.67 320.08 107.74C320.49 107.81 320.58 108.16 320.77 108.1C320.96 108.04 320.89 107.94 321.12 107.15C321.22 106.83 321.23 106.8 321.27 106.64C321.333 106.396 321.383 106.149 321.42 105.9C321.52 105.31 321.6 105 321.66 104.71C321.768 103.763 321.768 102.807 321.66 101.86C321.646 101.124 321.586 100.389 321.48 99.66C321.28 98.44 321.17 97.8401 320.83 97.5501C319.55 96.5101 316 98.7401 316.16 99.3601Z" fill="#686868"/>
<path id="Vector_16" d="M315.36 105.65C316.072 105.65 316.65 104.222 316.65 102.46C316.65 100.698 316.072 99.27 315.36 99.27C314.648 99.27 314.07 100.698 314.07 102.46C314.07 104.222 314.648 105.65 315.36 105.65Z" fill="#7F7F7F"/>
<path id="Vector_17" d="M56.44 88.76C59.0302 88.76 61.13 84.5694 61.13 79.4C61.13 74.2307 59.0302 70.04 56.44 70.04C53.8498 70.04 51.75 74.2307 51.75 79.4C51.75 84.5694 53.8498 88.76 56.44 88.76Z" fill="#686868"/>
<path id="Vector_18" d="M52.8099 85.58C54.5496 85.58 55.9599 82.7862 55.9599 79.34C55.9599 75.8937 54.5496 73.1 52.8099 73.1C51.0702 73.1 49.6599 75.8937 49.6599 79.34C49.6599 82.7862 51.0702 85.58 52.8099 85.58Z" fill="#7F7F7F"/>
<path id="Vector_19" d="M2.05005 67.73L52.87 72.95L55.48 76.52L54.53 85.79L2.05005 80.74" fill="#7F7F7F"/>
<path id="Vector_20" d="M2.29 80.7C3.55473 80.7 4.58 77.7898 4.58 74.2C4.58 70.6101 3.55473 67.7 2.29 67.7C1.02527 67.7 0 70.6101 0 74.2C0 77.7898 1.02527 80.7 2.29 80.7Z" fill="#686868"/>
<path id="Vector_21" d="M316.49 112.05C319.378 112.05 321.72 107.859 321.72 102.69C321.72 97.5206 319.378 93.33 316.49 93.33C313.602 93.33 311.26 97.5206 311.26 102.69C311.26 107.859 313.602 112.05 316.49 112.05Z" fill="#686868"/>
<path id="Vector_22" d="M320.29 112.17C323.179 112.17 325.52 107.979 325.52 102.81C325.52 97.6406 323.179 93.45 320.29 93.45C317.402 93.45 315.06 97.6406 315.06 102.81C315.06 107.979 317.402 112.17 320.29 112.17Z" fill="#7F7F7F"/>
<path id="Vector_23" d="M370.87 103.19L382.45 104.44L381.92 114.6L366.95 113L366.24 102.57L370.87 103.19Z" fill="#686868"/>
<path id="Vector_24" d="M56.8598 69.87C57.0498 70.05 57.3799 69.94 57.9699 70.31C58.262 70.5055 58.5189 70.7489 58.7299 71.03C59.1968 71.5573 59.5995 72.138 59.9298 72.76C60.2782 73.485 60.5335 74.251 60.6899 75.04C60.9481 76.1373 61.112 77.2547 61.1798 78.38C61.228 79.6312 61.151 80.8841 60.9499 82.12C60.7253 83.4782 60.3908 84.8159 59.9499 86.12C59.7911 86.6637 59.5372 87.175 59.1999 87.63C58.9668 87.9595 58.6794 88.2469 58.3499 88.48C57.8199 88.83 57.6099 88.73 57.0999 89.1C56.7859 89.3197 56.5287 89.6111 56.3499 89.95C56.1405 90.4248 56.0914 90.9548 56.2099 91.46C56.3518 92.4102 56.6527 93.3297 57.0999 94.18C57.7806 95.3361 58.7096 96.3267 59.8199 97.08C61.2299 98.08 62.8198 98.57 67.3098 99.08C70.8698 99.45 70.6199 99.19 75.1899 99.57C79.4799 99.92 81.6299 100.1 82.5899 100.28C83.9549 100.535 85.3415 100.655 86.7299 100.64C87.509 100.642 88.2862 100.565 89.0498 100.41C90.0064 100.188 90.933 99.8521 91.8098 99.41C94.3998 98.26 95.6899 97.68 96.0399 97.27C96.6199 96.61 96.1499 96.52 96.9799 92.82C97.2599 91.58 97.3898 91.17 97.5598 90.1C97.6298 89.66 97.7299 88.92 97.8299 87.29C97.9299 85.66 97.9399 84.61 97.9599 83.46C98.0399 78.71 98.0498 79.12 98.0498 78.7C98.0498 75.37 98.0499 73.7 97.5999 72.5C96.4799 69.1 93.1299 67.36 91.5999 66.58C87.9299 64.66 87.2199 66.14 79.3999 64.04C78.0499 63.68 75.9299 63.04 72.8899 62.52C72.5399 62.46 70.8898 62.17 68.6098 61.99C67.1924 61.8067 65.7573 61.8067 64.3399 61.99C63.2214 62.1409 62.1362 62.4789 61.1299 62.99C57.6599 64.87 56.1398 69.19 56.8598 69.87Z" fill="#353535"/>
<path id="Vector_25" d="M97.2499 68.56C97.0899 69.4 97.38 69.66 97.73 72.07C97.9561 73.9416 98.073 75.8248 98.08 77.71C98.2 81.62 98.08 84.55 97.96 86.2C97.9369 87.593 97.8199 88.9828 97.6099 90.36C97.4499 91.16 97.3799 91.69 97.2499 92.74C97.2499 92.74 97.2499 93.09 97.1899 94.28C97.1392 94.6017 97.1808 94.9311 97.3099 95.23C97.4899 95.55 97.8099 95.7 98.4399 95.89C99.0925 96.0884 99.762 96.2257 100.44 96.3C101.69 96.41 102.6 96.44 103.53 96.48C104.462 96.492 105.394 96.5521 106.32 96.66C107.052 96.908 107.81 97.0691 108.58 97.14C109.38 97.14 109.78 97.14 110.12 96.9C110.64 96.49 110.49 95.9 110.96 94.11C111.11 93.5 111.17 93.43 111.31 92.92C111.793 90.8567 111.995 88.7375 111.91 86.62C111.91 85.32 111.91 85.62 111.91 84.48C111.91 81.54 112.16 80.48 112.2 78.6C112.242 76.9913 112.145 75.382 111.91 73.79C111.68 72.38 110.49 64.97 105.73 63.79C102.18 62.96 97.7999 65.75 97.2499 68.56Z" fill="black"/>
<path id="Vector_26" d="M313.55 94.8801C314.078 94.2202 314.767 93.7071 315.55 93.3901C316.214 93.1408 316.921 93.022 317.63 93.0401C318.921 92.8984 320.227 93.0806 321.43 93.5701C322.234 93.9211 322.962 94.4274 323.57 95.0601C324.209 95.7262 324.712 96.5109 325.05 97.3701C325.46 98.5553 325.643 99.8071 325.59 101.06C325.613 101.771 325.593 102.482 325.53 103.19C325.42 104.363 325.182 105.52 324.82 106.64C324.441 107.838 323.899 108.979 323.21 110.03C322.92 110.47 322.53 111.03 322.14 111.51C321 113.05 320.82 113.14 320.72 113.51C320.36 114.9 321.95 116.43 322.26 116.72C323.68 118.03 325.45 118.37 328.44 118.56C335.37 119.01 336.02 117.87 337.44 118.86C340.72 121.09 337.96 127.32 341.24 129.31C342.59 130.13 344.5 129.72 348.31 128.9C352.12 128.08 353.62 128.11 354.37 127C354.65 126.58 354.66 126.33 355.62 124.44C356.17 123.36 356.62 122.62 356.69 122.44C358.06 119.91 359.22 114.22 359.24 109.61V102.96C359.24 98.8401 338.85 80.0501 322.24 87.5101C318.741 89.1521 315.741 91.6958 313.55 94.8801V94.8801Z" fill="#353535"/>
<path id="Vector_27" d="M355.07 80.38C355.69 82.16 356.3 83.95 356.92 85.73Z" fill="#180760"/>
<path id="Vector_28" d="M324.57 57.16C327.31 55.93 329.88 56.16 332.57 56.44C338.71 57.07 341.79 57.44 341.93 57.44C345.458 58.2504 348.869 59.5072 352.08 61.18C354.462 62.3534 356.706 63.7889 358.77 65.46C365.2 70.87 367.39 78.18 368.84 83.02C370.093 87.3696 370.809 91.8564 370.97 96.38C371.11 99.12 371.04 101.31 370.97 103.07C370.859 107.192 370.444 111.299 369.73 115.36C369.09 119.995 367.829 124.522 365.98 128.82C364.397 132.325 362.382 135.617 359.98 138.62C356.473 143.159 352.059 146.919 347.02 149.66C341.498 152.839 335.035 153.976 328.76 152.87C323.51 152.26 322.99 151.14 322.88 150.82C322.48 149.73 323.54 148.82 324.3 146.9C325.45 143.96 324.59 141.99 324.48 139.15C324.32 135.09 325.95 131.87 329.2 125.42C330.668 122.516 332.338 119.719 334.2 117.05C344.62 101.86 324.2 61.78 325.65 61.17C325.94 61.06 326.74 62.57 327.43 62.33C328.12 62.09 328.43 59.93 327.7 59.39C327.427 59.2444 327.107 59.2121 326.81 59.3C324.94 59.54 322.81 59.09 322.71 58.59C322.61 58.09 323.63 57.58 324.57 57.16Z" fill="black"/>
<path id="Vector_29" d="M328.13 56.2C323.8 56.2307 319.553 57.3924 315.81 59.5699C321.58 65.8199 324.89 73.4099 324.89 81.5699C324.89 103.57 330.64 131.37 319.05 150.95C321.933 152.127 325.016 152.738 328.13 152.75C346.67 152.75 361.7 131.14 361.7 104.48C361.7 77.82 346.67 56.2 328.13 56.2Z" fill="#353535"/>
<path id="Vector_30" d="M381.98 114.78C382.786 114.78 383.44 112.425 383.44 109.52C383.44 106.615 382.786 104.26 381.98 104.26C381.174 104.26 380.52 106.615 380.52 109.52C380.52 112.425 381.174 114.78 381.98 114.78Z" fill="#686868"/>
<path id="Vector_31" d="M316.49 112.05L320.29 112.16L320.79 93.39L316.49 93.33V112.05Z" fill="#7F7F7F"/>
<path id="Vector_32" d="M316.75 111.78C319.638 111.78 321.98 107.589 321.98 102.42C321.98 97.2507 319.638 93.0601 316.75 93.0601C313.862 93.0601 311.52 97.2507 311.52 102.42C311.52 107.589 313.862 111.78 316.75 111.78Z" fill="#686868"/>
<path id="Vector_33" d="M311.88 105.3C312.57 105.3 313.13 103.917 313.13 102.21C313.13 100.503 312.57 99.12 311.88 99.12C311.19 99.12 310.63 100.503 310.63 102.21C310.63 103.917 311.19 105.3 311.88 105.3Z" fill="#7F7F7F"/>
</g>
<g id="bar-circle-front">
<path id="Vector_34" d="M43.8501 2.55994C65.1101 2.55994 82.3401 35.75 82.3401 76.7C82.3401 117.65 65.1101 150.84 43.8501 150.84" stroke="#FF7F00" stroke-width="5" stroke-miterlimit="10"/>
</g>
<g id="body">
<g id="Warstwa 2">
<path id="Vector_35" d="M131.89 94.22C132.011 95.9394 132.41 97.6278 133.07 99.22C134.4 102.38 135.86 102.84 137.35 106.35C138.28 108.54 137.88 108.75 138.78 110.87C139.8 113.181 141.249 115.278 143.05 117.05C146.942 121.454 150.149 126.42 152.56 131.78C155.56 138.5 154.56 141.21 158.02 144.14C160.31 146.06 161.34 145.41 164.68 147.46C166.51 148.59 168.95 150.46 173.47 157.2C180.04 166.98 178.09 167.75 181.79 171.2C186.86 175.96 189.88 173.89 194.86 179.28C198.34 183.05 199.25 186.65 201.27 186.41C203.08 186.2 204.42 183.09 204.84 180.95C205.53 177.33 203.84 174.95 204.84 174.29C205.84 173.63 208.84 176.22 209.35 176.67C210.849 178.132 212.111 179.819 213.09 181.67C215.79 186.11 215.31 186.22 216.48 187.67C218.81 190.5 221.94 191.52 224.17 192.27C226.64 193.11 229.03 193.16 233.8 193.27C238.22 193.36 239.01 192.95 239.53 192.44C240.88 191.13 240.04 189.56 241.67 186.26C241.82 185.95 242.39 185.58 242.5 184.88C242.61 184.18 242.24 183.79 242.38 183.06C242.495 182.585 242.741 182.152 243.09 181.81C244.54 180.13 244.37 176.76 244.28 175.1C244.18 173.01 243.75 172.28 244.28 171.77C245.05 171.03 246.46 171.95 247.85 172.01C251.17 172.14 254.41 167.32 258.54 158.46C263.04 148.81 261.45 149.73 263.54 146.58C269.4 137.71 276.79 138.4 279.94 129.95C280.708 127.628 281.263 125.242 281.6 122.82C282.73 116 281.84 113.59 283.97 111.18C285.39 109.58 287.25 108.96 289.97 108.09C292.4 107.28 294.08 106.73 295.91 107.37C297.57 107.96 297.4 108.86 300.18 110.46C302.07 111.55 302.8 111.46 303.27 112.36C303.91 113.52 303.27 114.8 302.27 117.12C299.96 123.03 300.96 123.58 298.71 128.05C297.4 130.63 297.06 130.46 296.57 132.05C295.64 135.14 296.57 136.75 296.09 139.65C295.74 141.71 295.09 142.14 293 145.83C288.72 153.57 289.54 155.7 285.88 159.83C283.75 162.24 283.72 161.24 281.36 163.83C278.55 166.96 276.58 170.62 274.23 175C273.65 176.09 273.23 177 272.33 178.32C271.202 180.087 269.931 181.76 268.53 183.32C266.91 185.112 265.162 186.783 263.3 188.32C253.19 197.01 251.92 198.53 251.18 200.92C250.81 202.11 251.18 201.52 250.47 206.15C249.76 210.78 249.11 213.03 248.33 216.6C247.288 221.308 246.496 226.068 245.96 230.86C245.22 237.62 245.78 238.2 244.77 241.79C244.07 244.24 243.96 243.46 240.77 251.06C239.182 254.605 237.845 258.257 236.77 261.99C235.9 265.09 236.15 265.09 235.58 266.99C232.98 275.65 226.58 280.11 227.26 280.99C227.81 281.68 231.69 279.14 235.1 277.42C246.35 271.76 257.42 272.56 268.85 273.42C281.59 274.34 284.95 277.05 285.96 277.94C289.055 280.758 291.142 284.513 291.9 288.63C292.68 293.45 291 297.86 287.62 306.69C286.93 308.48 286.2 310.39 285.01 312.87C282.508 318.318 279.223 323.372 275.26 327.87C269.15 334.62 266.26 334.16 262.19 340.7C260.35 343.7 261.02 343.65 258.63 347.59C254.4 354.59 251.73 355.59 251.26 359.71C250.82 363.71 252.77 366.94 251.98 367.31C251.19 367.68 249.79 364.01 246.98 363.75C244.9 363.56 244.34 365.45 240.8 366.84C237.65 368.07 237.01 367.01 234.14 368.03C229.38 369.72 227.58 373.92 226.78 373.49C226.15 373.15 226.65 370.26 229.15 364.22C234.15 352.22 238.56 348.22 241.75 338.32C242.05 337.39 242.6 335.6 243.17 333.57C244.94 327.29 245.66 323.21 246.03 321.69C248.31 312.28 259.29 306.19 259.81 306.69C260.33 307.19 251.43 320.69 237 328.79C227.41 334.18 209.8 340.44 199.93 334.73C197.72 333.236 195.2 332.261 192.56 331.88C188.81 331.43 185.97 332.52 180.44 334.73C167.61 339.85 165.53 340.81 164.76 339.96C163.38 338.44 169.26 334.57 170.46 325.96C171.25 320.32 169.39 317.3 171.46 310.51C172.067 308.725 172.782 306.979 173.6 305.28C174.22 303.73 179.88 289.5 173.12 280.28C170.3 276.44 164.18 272.96 158.12 272.92C156.03 272.92 154.05 273.32 153.61 272.44C152.86 270.96 157.76 268.33 160.98 263.89C165.04 258.27 164.85 251.83 164.3 239.17C163.72 225.65 161.58 226.69 162.64 220.17C164.15 210.89 168.87 206.4 166.44 200.45C165.34 197.76 163.95 197.64 160.98 194.51C152.52 185.61 155.69 178.08 147.19 163.15C145.151 159.702 142.932 156.364 140.54 153.15C133.76 143.56 132.43 143.34 129.37 138.41C124.76 130.97 126.8 129.89 121.29 116.79C116.44 105.26 113.29 102.33 114.88 98.97C115.82 96.79 119.18 93.78 131.89 94.22Z" fill="#DDAA2A"/>
<path id="Vector_36" d="M155.17 272.66C151.879 273.207 148.781 274.584 146.17 276.66C142.17 279.76 140.57 283.45 139.04 286.88C137.51 290.31 136.04 293.73 136.67 298.05C136.99 300.16 138.81 301.19 138.81 303.75C138.752 305.162 138.343 306.536 137.62 307.75C135.53 311.83 137.3 317.15 138.81 322.75C143.08 338.54 141.3 338.03 143.08 343.18C144.86 348.33 145.81 349.18 146.17 352.69C146.78 358.47 144.93 362.22 147.12 364.09C148.4 365.18 149.23 364.09 152.59 365.28C155.68 366.37 155.91 367.62 158.77 368.37C159.87 368.66 162.9 369.46 164.23 368.13C165.76 366.61 163.97 363.37 163.04 359.34C161.33 351.87 163.44 345.34 165.42 339.14C168.16 330.62 170.51 331.14 171.12 325.14C171.71 319.39 169.75 317.39 171.12 311.6C172.17 307.22 173.67 306.77 175.4 302.33C176.48 299.57 179.63 291.49 176.4 284.04C172.89 276.3 163.45 271.44 155.17 272.66Z" fill="#C18F14"/>
<path id="Vector_37" d="M132.12 93.75C132.791 93.3257 133.426 92.8474 134.02 92.3201C134.25 92.1401 134.69 91.7501 136.16 90.3201C137.16 89.3201 137.65 88.86 137.71 88.78C138.47 87.78 138.58 86.5 138.78 84.03C138.95 81.87 139.03 80.77 138.66 80.03C138.19 79.03 137.79 79.2301 136.4 77.4101C135.31 75.9801 135.31 75.5401 134.5 75.0401C134.095 74.7413 133.621 74.5513 133.122 74.4883C132.623 74.4252 132.116 74.4913 131.65 74.68C131.356 74.8554 131.106 75.0965 130.92 75.3845C130.735 75.6725 130.618 75.9995 130.58 76.34C130.58 76.64 130.66 76.6301 131.04 77.8601C131.158 78.3417 131.305 78.8159 131.48 79.28C131.75 79.83 131.93 79.93 132.02 80.4C132.11 80.87 132.02 80.9301 132.15 81.2001C132.28 81.4701 132.61 81.58 132.84 81.81C132.84 81.81 133 81.98 134.14 83.47C134.77 84.47 134.76 84.83 134.62 85.02C134.24 85.54 132.77 84.6701 130.1 84.5401C128.56 84.4701 127.79 84.43 127.01 84.9C125.7 85.69 125.74 87.0701 124.52 87.5101C123.94 87.7301 123.8 87.36 122.38 87.27C121.625 87.2569 120.869 87.297 120.12 87.3901C118.5 87.4801 118.31 87.1301 115.85 86.9201C113.85 86.7501 112.85 86.6701 112.4 87.1601C111.95 87.6501 112.28 88.2701 111.93 90.6001C111.66 92.3301 111.33 92.6001 111.45 93.6901C111.585 94.526 111.865 95.3317 112.28 96.0701C113.28 98.2001 113.78 99.2701 114.54 99.5101C115.6 99.8501 116.17 98.7001 118.54 97.6101C120.24 97.017 121.991 96.5786 123.77 96.3001C125.572 96.0125 127.355 95.6184 129.11 95.12C130.168 94.7954 131.18 94.3349 132.12 93.75Z" fill="#DDAA2A"/>
<path id="Vector_38" d="M302.08 110.8C303.14 110.22 303.3 107.57 302.26 106.22C301.44 105.16 300.26 105.42 299.53 104.22C298.87 103.22 299.29 102.35 299.23 101.08C299.08 97.6101 295.58 94.6701 292.99 93.4701C291.526 92.9496 290.016 92.5712 288.48 92.34C287.868 92.2641 287.263 92.1404 286.67 91.9701C284.67 91.3101 284.53 90.33 282.97 89.74C281.75 89.29 279.84 89.14 278.97 90.09C278.23 90.84 278.82 91.5801 278.07 93.0001C277.2 94.6501 275.71 95.0601 275.88 95.5501C276.05 96.0401 277.41 95.5501 278.88 95.9701C282.05 96.8201 284.11 101.35 283.21 102.38C283.02 102.61 282.73 102.61 280.3 102.32C276.52 101.88 275.85 101.73 275.52 102.13C274.9 102.88 275.97 105.06 277.33 106.48C279.89 109.14 283.66 109.28 285.23 109.33C287.108 109.376 288.979 109.095 290.76 108.5C292.66 107.87 292.53 107.5 293.55 107.31C297.45 106.6 300.36 111.74 302.08 110.8Z" fill="#DDAA2A"/>
<path id="Vector_39" d="M112.22 80.32C112.57 80.64 112.96 80.25 114 80.44C115.04 80.63 115 81 116.14 81.44C116.558 81.6592 117.016 81.7933 117.486 81.8345C117.956 81.8757 118.43 81.8232 118.88 81.68C119.5 81.37 119.47 80.93 119.88 80.91C120.88 80.85 120.97 83.91 122.88 84.65C123.243 84.7971 123.639 84.8413 124.026 84.7778C124.412 84.7143 124.773 84.5455 125.07 84.29C125.402 83.8158 125.538 83.232 125.45 82.66C125.39 81.79 124.96 81.27 125.09 81.18C125.22 81.09 125.73 81.85 126.7 82.24C127.065 82.4037 127.462 82.4833 127.862 82.4729C128.262 82.4625 128.654 82.3624 129.01 82.18C129.33 81.9128 129.585 81.5774 129.758 81.1985C129.931 80.8195 130.017 80.4066 130.01 79.99C130.097 79.2442 130.027 78.4884 129.803 77.7717C129.579 77.055 129.206 76.3934 128.71 75.8301C127.64 74.7201 126.23 74.58 123.42 74.28C122.75 74.148 122.056 74.2105 121.42 74.46C120.58 74.86 120.52 75.46 119.76 75.59C119 75.72 118.48 75.21 117.98 75.53C117.48 75.85 117.77 76.21 117.38 76.53C116.99 76.85 116.17 76.43 114.77 76.59C114.195 76.6246 113.64 76.811 113.16 77.13C112 77.94 111.63 79.78 112.22 80.32Z" fill="#DDAA2A"/>
<path id="Vector_40" d="M235.96 319.55C237.6 318.31 237.96 318.85 241.67 316.7C244.89 314.82 245.9 313.64 247.01 314.03C248.49 314.53 248.83 317.3 249.01 319.37C249.67 328.92 248.6 337.64 246.88 337.73C246.351 337.669 245.837 337.517 245.36 337.28C244.897 337.048 244.452 336.781 244.03 336.48V336.48C244.2 336.73 244.32 337.01 244.21 337.19C243.98 337.62 242.64 337.6 242.21 337.02C241.78 336.44 242.52 335.91 243.1 334.08C243.47 332.94 243.25 333.08 243.82 330.6C243.88 330.33 243.82 330.49 244.53 327.75C245.75 322.89 244.72 326.91 245.15 325.16C245.65 323.16 245.75 322.89 245.6 322.76C245.21 322.43 244 323.49 241.23 325.34C239.766 326.342 238.251 327.266 236.69 328.11C233.88 329.59 232.48 330.34 231.88 329.89C230.5 328.85 231.92 322.66 235.96 319.55Z" fill="#C18F14"/>
<path id="Vector_41" d="M284.08 122.26C284.42 122.95 284.24 123.67 283.61 125.35C282.61 128.13 281.83 129.63 281.83 129.63C279.21 134.91 279.5 134.71 278.97 135.33C277.54 137.04 276.97 136.57 274.46 139.02C272.46 140.94 272.85 141.16 271.25 142.46C269.09 144.22 268.11 144.03 266.86 145.67C266.256 146.696 265.738 147.769 265.31 148.88C264.01 151.88 264.31 151.88 263.53 153.04C262.65 154.44 262.08 154.72 261.87 155.89C261.7 156.81 261.93 157.31 261.51 157.79C261.209 158.111 260.803 158.312 260.365 158.356C259.927 158.4 259.489 158.284 259.13 158.03C258.83 157.67 258.99 157.1 259.61 155.53C260.51 153.23 261.31 151.53 261.75 150.53C262.75 148.18 262.36 148.1 263.05 146.61C264.32 143.9 266.48 142.35 270.42 139.61C273.35 137.56 273.42 137.93 274.82 136.61C276.734 134.816 278.232 132.624 279.21 130.19C279.802 128.87 280.202 127.473 280.4 126.04C280.4 125.77 280.62 124.71 280.99 122.59C281.15 121.7 281.24 121.25 281.59 121.05C282.26 120.66 283.61 121.3 284.08 122.26Z" fill="#C18F14"/>
<path id="Vector_42" d="M122.45 111.93C123.45 112.71 123.3 113.61 123.88 116.03C124.63 119.17 125.48 120.48 126.73 124.4C127.55 126.98 127.44 126.84 127.97 128.5C128.947 131.412 130.079 134.269 131.36 137.06C134.58 143.9 138.48 145.24 144.36 153.63C146.64 156.88 150.12 159.36 149.53 162.36C149.53 162.44 149.16 164.18 148.28 164.36C147.4 164.54 146.42 162.54 144.9 160.09C142.23 155.78 141.44 156.24 137.77 150.82C136.05 148.29 136.11 147.7 134.38 145.29C132.65 142.88 131.99 142.41 130.64 140.66C129.16 138.863 127.985 136.837 127.16 134.66C126.8 133.66 126.91 133.66 126.27 131.45C125.52 128.8 124.82 126.83 124.4 125.66C123.291 122.175 121.92 118.779 120.3 115.5C119.21 113.44 118.38 112.25 118.88 111.58C119.38 110.91 121.31 111 122.45 111.93Z" fill="#C18F14"/>
<path id="Vector_43" d="M114.24 99.66C114.88 97.53 116.83 96.41 117.98 95.74C118.49 95.44 119.65 94.8301 124.58 94.1401C130.58 93.2901 131.58 93.8 132.24 94.31C132.9 94.82 132.98 95.41 133.85 97.31C136.16 102.44 138.06 102.95 137.77 104.62C137.48 106.29 135.67 106.45 128.86 109.43C122.5 112.21 121.43 113.14 119.77 112.43C118.11 111.72 117.23 109.66 115.49 105.48C113.75 101.3 114.1 100.09 114.24 99.66Z" fill="black"/>
<path id="Vector_44" d="M281.45 120.84C282.26 122.35 283.61 122.18 288.71 123.93C296.04 126.45 297.41 128.21 299.13 127.25C300.85 126.29 299.78 123.97 302.27 117.99C303.62 114.75 304.45 114.25 304.21 112.76C303.76 109.88 300.15 108.26 296.95 106.82C293.95 105.45 286.95 102.33 284.35 104.92C284.191 105.092 284.05 105.279 283.93 105.48C282.43 107.74 282.74 110.22 282.8 111.75C282.95 117.28 280.14 118.49 281.45 120.84Z" fill="black"/>
</g>
<g id="Warstwa 8">
<path id="Vector_45" d="M142.22 337.37C143.42 335.7 146.14 337.3 152.11 337.02C158.49 336.71 163.94 334.48 164.59 335.86C164.708 336.324 164.739 336.805 164.68 337.28C164.578 337.942 164.518 338.61 164.5 339.28C164.597 339.772 164.748 340.251 164.95 340.71C165.23 341.86 164.59 342.64 164.14 343.92C163.58 345.51 164.03 345.81 163.7 348.37C163.37 350.93 162.88 351.13 162.63 352.83C162.4 354.37 162.63 355.07 164.68 362.63C165.42 365.42 165.91 367.37 164.95 368.24C164.461 368.555 163.913 368.769 163.34 368.87C162.293 369.164 161.216 369.342 160.13 369.4C158.973 369.454 157.813 369.424 156.66 369.31C155.582 369.278 154.509 369.161 153.45 368.96C152.45 368.74 152.59 368.67 151.13 368.33C149.44 367.94 149.13 368.02 148.46 367.62C148.017 367.272 147.538 366.973 147.03 366.73C146.21 366.41 145.74 366.73 145.52 366.46C145.3 366.19 146.05 365.33 146.14 364.06C146.2 363.23 145.89 362.96 145.61 361.92C145.42 361.21 145.61 360.65 145.52 358.09C145.42 355.71 145.89 355.88 145.79 353.99C145.79 353.32 145.65 352.49 144.45 348.73C143.56 345.95 143.45 345.98 143.11 344.73C141.97 340.88 141.31 338.66 142.22 337.37Z" fill="#EAEAEA"/>
<path id="Vector_46" d="M140.11 337.34C140.87 336.43 142.22 336.4 144.48 336.34C146.337 336.354 148.187 336.566 150 336.97C156.39 337.92 161.79 334.35 162.48 335.81C162.598 336.274 162.628 336.755 162.57 337.23C162.468 337.892 162.408 338.56 162.39 339.23C162.487 339.722 162.638 340.201 162.84 340.66C163.12 341.81 162.49 342.59 162.03 343.87C161.47 345.46 161.92 345.76 161.59 348.32C161.26 350.88 160.77 351.08 160.52 352.78C160.29 354.32 160.52 355.02 162.52 362.58C163.26 365.37 163.75 367.32 162.79 368.19C162.301 368.505 161.753 368.719 161.18 368.82C160.133 369.114 159.056 369.292 157.97 369.35C156.813 369.404 155.653 369.374 154.5 369.26C153.422 369.228 152.349 369.111 151.29 368.91C150.29 368.69 150.43 368.62 148.97 368.28C147.51 367.94 146.47 368.08 146.3 367.57C146.28 367.304 146.28 367.036 146.3 366.77C146.316 366.513 146.316 366.256 146.3 366C146.203 365.518 145.955 365.08 145.59 364.75C145.152 364.026 144.816 363.245 144.59 362.43C143.989 361.026 143.569 359.55 143.34 358.04C143.11 356.04 143.72 356.04 143.61 353.94C143.61 353.27 143.47 352.44 142.27 348.68C141.39 345.9 141.27 345.93 140.93 344.68C139.78 340.59 139.13 338.53 140.11 337.34Z" fill="#D6D6D4"/>
<path id="Vector_47" d="M240 337.79C241.69 336.55 243.81 337.19 246.9 337.79C255.5 339.45 258.67 338.2 259.49 340.16C260.31 342.12 258.05 345.53 257.71 346.05C257.37 346.57 256.91 347.18 255.98 348.6C255.55 349.27 255.41 349.51 254.8 350.44C254.03 351.62 253.64 352.22 253.31 352.64C252.98 353.06 253.08 352.91 251.83 354.36C251.27 354.904 250.788 355.523 250.4 356.2C250.181 356.85 250.024 357.52 249.93 358.2C249.57 359.77 249.52 359.67 249.45 360.2C249.378 361.21 249.479 362.224 249.75 363.2C249.95 364.2 250.07 365.26 250.28 366.28C250.36 366.67 250.49 367.28 250.22 367.47C249.95 367.66 249.65 367.47 249.57 367.41C248.09 366.77 242.05 369.87 236.68 369.73C235.13 369.73 234.81 369.41 230.5 369.08H230.3C228.36 369.08 228.06 369.08 227.77 368.9C227.527 368.748 227.322 368.543 227.17 368.3C226.03 366.67 226.46 363.97 226.46 363.97C226.71 362.42 227.31 361.52 229.19 357.91C230.19 355.91 230.35 355.91 232.82 351.49C233.82 349.67 234.35 348.76 234.72 348.05C235.57 346.42 236.21 345.05 237.98 341.39C239.38 338.43 239.53 338.14 240 337.79Z" fill="#D6D6D4"/>
<path id="Vector_48" d="M241.91 338.03C243.59 336.78 245.71 337.43 248.8 338.03C257.4 339.69 260.57 338.44 261.39 340.4C262.21 342.36 259.95 345.77 259.61 346.28C259.27 346.79 258.81 347.42 257.89 348.84C257.45 349.51 257.31 349.74 256.7 350.68C255.93 351.86 255.54 352.46 255.21 352.88C254.88 353.3 254.98 353.14 253.73 354.6C253.17 355.143 252.688 355.763 252.3 356.44C252.08 357.09 251.922 357.76 251.83 358.44C251.47 360.01 251.42 359.91 251.35 360.44C251.277 361.45 251.379 362.465 251.65 363.44C251.85 364.44 251.97 365.51 252.18 366.53C252.26 366.91 252.39 367.53 252.12 367.72C251.85 367.91 251.55 367.72 251.47 367.66C249.99 367.02 243.95 370.11 238.58 369.98C237.03 369.98 236.71 369.66 232.4 369.32C231.487 369.346 230.573 369.289 229.67 369.15C228.24 368.93 227.52 368.82 227.17 368.31C226.63 367.53 227.34 366.31 228.36 364.22C230.28 360.32 229.36 361.43 231.09 358.16C232.09 356.16 232.25 356.16 234.72 351.74C235.72 349.92 236.25 349 236.62 348.29C237.47 346.66 238.11 345.29 239.89 341.64C241.28 338.66 241.45 338.38 241.91 338.03Z" fill="#EAEAEA"/>
</g>
<g id="Warstwa 3">
<path id="Vector_49" d="M228.06 366.72C226.712 367.487 225.678 368.705 225.14 370.16C224.76 371.49 225.14 372.25 225.4 374.56C225.66 376.87 225.73 378.2 225.27 379.67C224.27 382.75 221.85 383.13 221.48 386.2C221.3 386.909 221.342 387.656 221.6 388.34C223.06 391.19 230.6 389.25 242.99 389.41C243.41 389.41 247.87 389.69 256.78 390.24C256.78 390.24 262.5 390.6 273.48 390.24C278.08 390.1 281.2 389.87 282.48 387.87C282.787 387.254 282.967 386.582 283.01 385.895C283.053 385.208 282.958 384.52 282.73 383.87C282.425 382.714 281.837 381.652 281.021 380.78C280.204 379.907 279.183 379.251 278.05 378.87C276.05 378.27 274.89 379.02 272.99 379.22C266.22 379.97 258.18 373.03 254.27 367.34C252.65 364.99 251.43 362.4 249.96 362.59C248.69 362.75 248.96 364.77 247.43 366.16C243.45 369.71 234.07 362.92 228.06 366.72Z" fill="#020202"/>
<path id="Vector_50" d="M224.09 382.76C226.09 381.98 227.66 383.16 231.02 383.95C233.8 384.6 234.6 384.22 239.08 384.42C245.29 384.7 245.33 385.49 252.08 386.09C256.732 386.578 261.421 386.615 266.08 386.2C271.46 385.69 274.15 385.44 276.15 384.9C279.15 384.09 281.37 383.09 282.45 384.07C283.31 384.84 283.14 386.56 282.7 387.63C282.376 388.387 281.854 389.043 281.19 389.53C279.09 391.16 276.31 391.1 275.19 391.08C271.33 391 267.46 391.14 263.6 391.08C257.78 390.98 257.38 391.31 252.14 391.08C248.4 390.91 248.78 390.75 245.09 390.6C242.94 390.52 239.03 390.36 234 390.6C231.53 390.72 229 390.67 226.57 390.72C224.14 390.77 222.57 390.82 221.66 389.89C220.48 388.65 221.05 386.58 221.16 386.2C221.379 385.453 221.753 384.76 222.258 384.168C222.763 383.575 223.387 383.095 224.09 382.76V382.76Z" fill="#424242"/>
<path id="Vector_51" d="M146.14 364.11C147.33 363.39 148.98 363.88 150.95 364.46C154.09 365.39 153.78 366.59 156.84 367.31C158.958 367.707 161.132 367.707 163.25 367.31C163.999 367.419 164.718 367.681 165.362 368.08C166.005 368.479 166.559 369.007 166.99 369.63C167.7 370.63 167.78 371.76 167.71 374.09C167.52 380.35 166.71 380.81 167.17 383.35C167.75 386.35 169.01 386.35 169.31 389.06C169.561 391.53 168.93 394.009 167.53 396.06C163.17 402.06 149.28 401.64 144.36 394.99C143.164 393.241 142.428 391.219 142.22 389.11C141.54 384.11 143.93 382.75 144.9 376.45C145.96 369.45 143.9 365.45 146.14 364.11Z" fill="black"/>
<path id="Vector_52" d="M142.45 386.92C143.18 386.74 143.67 388.64 146.01 391.02C147.287 392.352 148.799 393.437 150.47 394.22C152.268 395.012 154.206 395.437 156.17 395.47C158.79 395.63 160.77 395.75 162.59 394.58C163.2 394.19 163.51 393.84 165.59 391.02C167.52 388.43 167.96 386.79 168.59 386.92C169.22 387.05 169.44 388.52 169.48 389.23C169.57 390.72 168.97 391.23 168.77 393.16C168.62 394.56 168.88 394.79 168.77 395.47C168.29 398.25 162.97 399.59 161.64 399.93C159.58 400.45 153.64 401.93 148.27 398.68C146.553 397.59 145.046 396.202 143.82 394.58C142.06 392.42 141.82 391.19 141.68 390.66C141.45 389.09 141.68 387.09 142.45 386.92Z" fill="#424242"/>
</g>
<g id="Warstwa 6">
<path id="Vector_53" d="M198 292.28C199.89 292.88 202 292.74 206.2 292.46C208.88 292.28 210.63 292.02 213.69 291.57C219.13 290.76 219.91 290.34 220.46 289.97C222.18 288.8 223.06 287.2 224.38 284.8C226.13 281.61 225.79 280.8 227.05 279.45C228.58 277.9 229.7 278.75 233.83 277.31C237.07 276.18 237.16 275.45 240.15 274.46C241.52 274.01 242.7 273.77 246.93 273.3C254.44 272.48 258.2 272.09 258.6 273.04C259 273.99 257.16 275.04 254.86 277.67C252.22 280.67 250.86 283.2 248.26 288.36C245.9 292.97 244.64 296.49 242.2 303.36C238.2 314.77 238.49 315.91 235.61 322.08C232.84 328 232.2 327.62 231.51 330.63C229.75 338.28 233.09 344.09 230.26 346.14C229.08 346.99 227.46 346.72 226.16 346.49C223.3 346 222.31 344.31 219.39 342.21C216.357 340.059 212.889 338.602 209.23 337.94C207.66 337.68 207.81 337.94 201.75 337.94C198.416 338.049 195.078 337.989 191.75 337.76C188.95 337.43 188.14 337.04 180.52 335.76C178.03 335.36 177.2 335.25 176.06 335.58C173.52 336.33 173.13 338.19 169.83 339.86C168.54 340.5 166.32 341.62 165.19 340.75C164.06 339.88 164.69 336.81 165.01 335.58C165.14 335.08 165.41 334.17 167.33 330.58C168.84 327.77 169.17 327.39 169.83 325.95C171.2 322.95 171.43 321.95 171.43 321.14C171.43 319.73 170.97 319.47 170.6 317.81C170.133 315.305 170.336 312.721 171.19 310.32C171.44 309.5 171.5 309.51 173.69 304.86C175.24 301.56 176.03 299.86 176.3 299.04C176.998 296.802 177.398 294.482 177.49 292.14C177.68 289.29 177.78 287.86 177.25 286.2C176.37 283.43 174.51 281.85 174.88 281.45C175.25 281.05 176.28 281.85 177.25 282.45C177.25 282.45 178.92 283.45 185.09 286.25C189.14 288.12 189.09 287.43 192.34 289.11C195.96 290.91 195.75 291.57 198 292.28Z" fill="#3F3F3F"/>
<path id="Vector_54" d="M230.14 345.75C231.02 346.09 232.14 345.15 233.83 343.75C235.06 342.75 235.66 341.89 238.22 338.28C239.653 336.428 240.962 334.484 242.14 332.46C242.869 331.119 243.503 329.729 244.04 328.3C244.59 326.91 246.14 322.98 245.47 322.6C245.2 322.44 244.76 323 243.33 324.03C242.33 324.73 242.33 324.65 240.24 325.93C236.98 327.93 236.69 328.37 235.13 329.02C233.97 329.5 233.23 329.18 232.4 329.85C231.73 330.441 231.27 331.235 231.09 332.11C230.13 335.82 227.8 344.82 230.14 345.75Z" fill="#1C1C1C"/>
<path id="Vector_55" d="M136.64 293.59C136.37 293.59 136.15 293.85 134.5 299.53C133.918 301.324 133.441 303.151 133.07 305C132.8 306.968 132.723 308.957 132.84 310.94C132.84 318.1 129.14 319.67 129.51 325.19C129.66 327.43 130.72 329.38 132.84 333.27C136.17 339.4 141.51 346.41 143.05 345.63C143.72 345.29 143.34 342.87 142.58 338.03C142.164 335.386 141.61 332.766 140.92 330.18C139.92 326.69 139.69 326.77 139.01 324.01C138.416 321.427 138.022 318.803 137.83 316.16C137.42 312.03 137.24 309.92 137.83 308.09C138.64 305.57 139.62 305.64 140.2 303.57C141.5 298.97 138.15 293.37 136.64 293.59Z" fill="#3F3F3F"/>
</g>
<g id="Warstwa 7">
<path id="Vector_56" d="M166.99 201.93C167.66 203.65 166.5 205.1 163.99 210.3C161.77 214.86 160.66 217.14 160.25 218.86C159.32 222.77 160.66 223.77 162.03 233.29C162.612 237.367 162.969 241.474 163.1 245.59C163.33 250.59 163.43 253.18 162.75 255.75C161.748 259.206 160.046 262.419 157.75 265.19C155.46 268.19 151.97 268.99 152.22 270.9C152.362 271.549 152.744 272.121 153.29 272.5C154.52 273.34 156.16 272.74 157.21 272.5C160.38 271.78 163.28 273.13 165.77 274.28C168.92 275.75 168.28 276.79 173.61 280.34C175.16 281.377 176.766 282.328 178.42 283.19C180.502 284.268 182.646 285.223 184.84 286.05C189.99 288.05 190.84 287.88 193.39 289.43C195.94 290.98 195.65 291.6 197.49 292.43C200.18 293.7 202.11 293.04 208.54 292.25C217.33 291.18 217.97 291.9 219.95 290.47C222.7 288.47 224.64 284.76 225.29 283.47C226.063 281.768 227.019 280.155 228.14 278.66C228.961 277.645 229.857 276.692 230.82 275.81C233.04 273.574 234.956 271.055 236.52 268.32C238.16 265.08 236.92 264.62 238.3 259.41C239.3 255.77 240.62 253.16 243.3 248.01C245.66 243.47 246.64 242.34 247.22 239.45C247.8 236.56 247.28 235.45 247.22 232.32C247.15 228.06 247.95 225.93 249.22 220.2C252.36 205.7 250.22 205.5 252.79 200.96C253.79 199.11 254.6 198.42 263.3 190.44C271.68 182.77 273.08 183.11 274 180.64C277.53 171.07 263.28 155.42 258.67 157.11C257.87 157.41 258.15 157.93 255.28 162.11C252.81 165.72 251.54 167.53 249.76 168.35C248.47 168.95 247.45 168.98 246.19 170.13C245.312 170.844 244.739 171.868 244.59 172.99C244.54 174.14 245.23 174.53 245.66 175.66C245.89 176.26 246.17 177.42 243.88 183.32C243.126 184.95 242.458 186.619 241.88 188.32C241 191.45 241.48 192.17 240.81 193.32C239.4 195.73 235.49 195.66 231 195.82C216.64 196.33 217.26 198.42 213.36 196.89C207.61 194.63 202.44 188.58 202.36 182.81C202.31 180.47 203.13 179.81 202.54 178.17C201.03 173.88 194.46 174.76 188.82 171.4C180.12 166.23 183.48 156.85 176.7 153.4C166.49 148.21 146.34 163.07 147.7 169.26C148.067 170.176 148.485 171.07 148.95 171.94C150.49 175.58 150.43 177.75 151.08 180.67C151.89 184.24 153.25 186.67 155.18 190.11C157.35 193.97 158.44 195.9 160.53 197.6C163.84 200.43 166.18 199.82 166.99 201.93Z" fill="#F2DE25"/>
<path id="Vector_57" d="M150.06 174.3C151.4 170.3 153.8 165.6 158.44 162.9C167.01 157.9 178.89 162.38 180.18 158.8C180.61 157.63 179.73 156.04 179.29 155.23C178.328 153.576 176.812 152.315 175.01 151.67C172.56 150.74 170.41 151.23 167.71 151.85C165.425 152.434 163.211 153.269 161.11 154.34C159.076 155.188 157.11 156.191 155.23 157.34C152.869 158.767 150.761 160.575 148.99 162.69C147.52 164.5 146.73 165.48 146.5 166.97C145.93 170.66 149.45 173.8 150.06 174.3Z" fill="#E0C924"/>
<path id="Vector_58" d="M255.81 161C255.86 162.68 260.47 162.62 263.53 164.68C270.26 169.21 267.64 182.68 271.37 183.33C271.999 183.376 272.626 183.211 273.15 182.86C274.64 181.86 274.69 179.56 274.7 177.75C274.663 175.771 274.326 173.808 273.7 171.93C273.101 169.726 272.22 167.609 271.08 165.63C270.029 163.745 268.708 162.024 267.16 160.52C265.997 159.287 264.647 158.244 263.16 157.43C262.024 156.854 260.749 156.608 259.48 156.72C258.904 156.772 258.352 156.975 257.88 157.31C257.513 157.604 257.207 157.968 256.98 158.38C256.4 159.156 256.001 160.051 255.81 161V161Z" fill="#E0C924"/>
<path id="Vector_59" d="M202.45 177.81C203.45 179.58 202.91 180.59 203.52 183.21C204.429 186.711 206.425 189.834 209.22 192.13C210.727 193.248 212.42 194.091 214.22 194.62C216.61 195.35 217.41 195.07 222.54 195.33C227.47 195.59 228.7 195.95 232.45 195.78C236.2 195.61 237.18 195.22 237.75 194.78C239.07 193.78 239.75 192.29 240.95 189.49C242.15 186.69 242.26 185.72 242.62 185.75C242.77 185.75 242.97 185.98 243.33 193.29C243.482 194.101 243.355 194.94 242.97 195.67C242.32 196.67 241.21 197.1 238.97 197.57C236.967 197.959 234.944 198.237 232.91 198.4C230 198.73 230.46 198.93 226.73 199.47C224.25 199.83 224.41 199.69 218.41 200.3C214.66 200.69 214.48 200.76 213.66 200.66C211.285 200.316 209.035 199.377 207.12 197.93C205.541 196.815 204.142 195.467 202.97 193.93C201.293 191.731 199.968 189.285 199.04 186.68C197.69 183.37 197.78 182.39 197.86 181.93C198.06 180.69 198.56 180.48 199.16 178.13C199.56 176.59 199.54 175.91 199.99 175.75C200.65 175.49 201.81 176.66 202.45 177.81Z" fill="#E0C924"/>
<path id="Vector_60" d="M226.28 281.17C225.79 280.76 224.22 282.39 220.28 284.8C217.52 286.49 215.96 287.43 213.87 288.01C212.5 288.38 211.87 288.34 205.67 288.01C197.59 287.57 197.01 287.54 195.67 287.12C193.67 286.48 194.38 286.34 188.67 283.55C184.19 281.35 183.74 281.43 181.36 279.99C178.36 278.2 178.57 277.75 175.66 276.07C173.602 274.903 171.456 273.899 169.24 273.07C164.92 271.38 163.11 271.35 162.24 269.68C161.76 268.68 161.92 267.76 162.24 266.12C163.04 261.98 164.75 261.04 165.98 257.38C166.777 254.91 167.079 252.307 166.87 249.72C166.71 246.51 165.98 246.18 165.63 242.23C165.4 239.66 165.7 239.69 165.63 235.28C165.681 232.36 165.5 229.441 165.09 226.55C164.34 222.04 163.35 221.26 163.84 218.71C163.97 218.05 164.16 217.47 166.34 213.71C168.99 209.14 171.15 208.16 170.97 205.71C170.884 204.707 170.512 203.749 169.9 202.95C169.01 201.7 167.37 200.47 166.61 200.95C166.03 201.27 166.47 202.26 166.16 203.95C165.85 205.64 165.06 206.18 163.49 208.95C162.19 211.23 161.54 212.37 160.99 213.58C159.334 216.76 158.64 220.352 158.99 223.92C159.24 227.84 159.9 228.92 160.6 233.36C161.032 235.834 161.269 238.339 161.31 240.85C161.31 242.06 161.31 243.74 161.13 247.09C161.04 249.53 160.98 250.47 160.95 250.83C160.902 252.624 160.725 254.412 160.42 256.18C159.804 258.461 158.71 260.585 157.21 262.41C155.98 264.06 155.56 264.15 153.65 266.69C152.13 268.69 151.58 269.69 151.65 270.97C151.668 271.424 151.789 271.868 152.004 272.268C152.219 272.668 152.522 273.014 152.89 273.28C154.04 273.9 155.12 272.83 156.99 272.57C157.7 272.48 158.99 272.44 162.52 274.18C165.051 275.496 167.49 276.983 169.82 278.63C172.82 280.53 175.18 281.77 177.67 283.09C179.1 283.84 179.38 283.96 186.4 287.36C191.14 289.66 192.62 290.36 195.13 291.46C200.7 293.85 202 293.95 202.79 293.96C205.65 293.96 205.79 292.96 209.92 292.71C213.12 292.52 213.68 293.1 216.16 292.53C218.003 292.117 219.719 291.262 221.16 290.04C222.381 288.942 223.397 287.635 224.16 286.18C224.86 285.21 226.94 281.73 226.28 281.17Z" fill="#E0C924"/>
</g>
<g id="Warstwa 4">
<path id="Vector_61" d="M204.36 174.42C203.5 173.74 202.704 172.983 201.98 172.16C198.98 168.68 196.98 159.06 200.08 149.16C201.38 144.96 202.69 140.16 207.21 136.44C209.211 134.82 211.511 133.611 213.98 132.88C213.98 132.88 224.36 129.57 236.68 137.63C237.608 138.161 238.317 139.004 238.68 140.01C238.739 140.922 238.699 141.837 238.56 142.74C238.734 143.302 239.016 143.825 239.39 144.28C239.753 144.719 240.198 145.082 240.7 145.35C243.03 146.78 240.7 153.81 243.91 157.23C244.468 157.677 244.914 158.249 245.21 158.9C245.66 160.13 245.21 161.39 244.5 163.29C243.79 165.19 243.33 165.61 243.31 166.74C243.316 167.657 243.561 168.556 244.02 169.35C245.93 173.08 244.02 180.16 243.02 183.85C241.76 188.61 241.13 190.99 239.1 192.28C237.27 193.46 235.27 193.35 231.74 193.12C228.518 193.073 225.334 192.425 222.35 191.21C220.14 190.21 215.44 188.21 212.85 183.61C211.18 180.61 211.74 179.02 209.64 177.43C208.16 176.22 206.77 176.27 204.36 174.42Z" fill="#DDAA2A"/>
<path id="Vector_62" d="M218.38 143.77C219.22 144.98 218.77 145.77 219.38 147.1C220.01 148.62 220.83 148.31 221.88 150.1C222.689 151.191 223.047 152.552 222.88 153.9C222.67 154.72 222.26 154.9 219.88 157.22C217.72 159.37 217.41 159.89 217.26 160.55C217.11 161.21 217.26 161.42 217.62 163.55C218.12 166.3 217.93 165.81 218.33 167.83C218.85 170.47 219.12 171.83 219.64 172.7C220.232 173.91 221.186 174.907 222.37 175.55C224.76 176.69 226.6 175.12 227.96 176.38C228.327 176.722 228.58 177.167 228.685 177.657C228.791 178.147 228.744 178.658 228.55 179.12C228.02 179.99 226.55 179.93 224.27 179.83C222.506 179.881 220.755 179.515 219.16 178.76C218.061 178.213 217.097 177.429 216.337 176.464C215.578 175.499 215.043 174.377 214.77 173.18C214.35 171.73 214.47 171.07 214.29 168.07C214.15 165.59 214.04 165.62 213.94 163.79C213.758 161.258 213.794 158.716 214.05 156.19C214.53 151.93 215.3 152.33 215.84 147.75C216.16 144.96 216.11 142.83 216.91 142.64C217.45 142.43 218.24 143.57 218.38 143.77Z" fill="#C18F14"/>
<path id="Vector_63" d="M203.35 158.71C203.86 158.287 204.475 158.011 205.13 157.91C205.92 157.857 206.711 157.976 207.45 158.26C208.491 158.421 209.489 158.785 210.39 159.33C210.892 160.008 211.283 160.76 211.55 161.56C211.933 162.249 212.174 163.007 212.26 163.79C212.26 164.79 211.7 165.07 211.91 165.79C212.12 166.51 212.91 166.49 213.24 167.3C213.57 168.11 212.97 168.3 212.89 169.53C212.82 170.62 213.19 170.67 213.24 172.2C213.24 173.2 213.29 173.99 212.8 174.43C212.31 174.87 211.99 174.64 211.55 175.06C211.11 175.48 211.32 176.06 211.01 176.39C210.11 177.39 205.38 175.86 204.69 173.45C204.583 172.952 204.401 172.473 204.15 172.03C203.62 171.13 203.15 171.17 202.73 170.51C202.08 169.56 202.73 169.05 202.19 167.04C201.926 166.344 201.719 165.629 201.57 164.9C201.534 164.117 201.625 163.334 201.84 162.58C202.29 160.46 202.52 159.42 203.35 158.71Z" fill="#C18F14"/>
<path id="Vector_64" d="M199.13 151.49C199.695 148.787 200.574 146.159 201.75 143.66C203.33 140.28 204.64 137.47 207.45 135.11C211.97 131.3 217.39 131.11 219.57 131.11C224.25 130.96 223.5 132.86 232.16 134.43C235.27 135 237.23 135.11 238.58 136.81C240.15 138.81 240.22 142.02 239.05 142.75C238.13 143.33 237.05 141.94 234.54 141.56C232.18 141.21 231.54 142.18 228.36 142.75C223.15 143.67 221.36 141.75 218.86 143.46C217.54 144.37 216.37 146.03 216.72 147.26C217 148.26 218.06 148.18 219.57 149.64C220.04 150.09 222.23 152.32 221.71 154.16C221.52 154.82 221.12 154.92 219.09 156.53C217.06 158.14 216.01 158.99 215.77 159.62C215.19 161.1 216.25 161.76 216.24 165.09C216.24 166.64 216.24 167.75 215.53 168.18C214.63 168.73 212.82 168 211.96 166.75C210.87 165.15 212.15 163.91 211.25 161.75C210.876 160.93 210.322 160.205 209.63 159.629C208.937 159.052 208.124 158.639 207.25 158.42C206.62 158.219 205.953 158.158 205.297 158.241C204.641 158.324 204.01 158.549 203.45 158.9C202.45 159.67 202.33 160.9 202.02 163.41C201.763 165.014 201.876 166.656 202.35 168.21C202.523 168.686 202.734 169.147 202.98 169.59C203.9 171.34 204.62 171.64 205.11 172.68C205.79 174.11 205.63 176.08 205.11 176.24C204.11 176.59 199.81 169.99 198.7 162.46C198.182 158.807 198.328 155.091 199.13 151.49V151.49Z" fill="#020202"/>
<path id="Vector_65" d="M216 166.66C216.68 167.18 216.09 168.12 216.6 170.11C216.973 171.418 217.621 172.632 218.5 173.67C219.5 175.04 220.36 176.17 221.83 176.67C222.57 176.91 222.47 176.67 224.08 176.91C226.38 177.26 227.08 177.85 227.77 177.38C228.46 176.91 228 176.32 228.72 175.6C229.04 175.27 229.47 175.04 230.97 174.77C232.07 174.573 233.183 174.453 234.3 174.41C234.85 174.41 234.62 174.41 238.22 174.41C238.942 174.318 239.676 174.401 240.36 174.65C241.12 175 241.13 175.4 242.14 176.19C243.34 177.13 243.71 176.89 244.14 177.5C244.86 178.5 244.5 179.9 244.26 180.83C243.94 182.08 243.58 182.13 242.72 184.39C242.448 184.998 242.247 185.636 242.12 186.29C241.94 187.75 242.48 188.17 242.12 189.15C241.87 189.83 241.57 189.69 240.7 190.93C239.83 192.17 240.02 192.33 239.51 192.83C238.75 193.482 237.781 193.837 236.78 193.83C235.037 193.952 233.286 193.912 231.55 193.71C227.97 193.53 228.07 194.13 226.2 193.71C224.33 193.29 224.75 192.81 221.57 191.57C219.04 190.57 218.13 190.63 217.29 189.57C216.45 188.51 216.91 188.16 215.98 186.96C215.22 185.96 214.75 185.96 213.49 184.82C212.592 184.119 211.861 183.228 211.35 182.21C210.62 180.46 211.56 179.81 210.76 177.69C210.38 176.69 209.99 176.37 210.16 175.79C210.44 174.86 211.64 174.96 212.16 173.89C212.44 173.35 212.25 173.09 212.16 171.39C212.07 169.52 212.02 168.58 212.4 167.95C213.17 166.66 215.17 166.06 216 166.66Z" fill="#1E1E1E"/>
<path id="Vector_66" d="M230.38 179.06C230.73 178.59 231.38 178.9 232.76 178.7C233.697 178.522 234.612 178.243 235.49 177.87C236.75 177.4 237.03 177.18 237.63 177.27C238.23 177.36 238.24 177.64 239.17 177.99C240.28 178.4 240.52 178.1 241.17 178.46C241.529 178.683 241.84 178.974 242.085 179.317C242.33 179.66 242.505 180.049 242.6 180.46C242.698 181.232 242.573 182.016 242.24 182.72C241.88 183.83 241.68 184.43 241.17 184.62C240.66 184.81 240.41 184.42 238.92 183.91C238.249 183.6 237.519 183.437 236.78 183.43C235.73 183.55 235.56 184.19 234.4 184.26C233.912 184.312 233.418 184.232 232.97 184.03C232.57 183.82 232.45 183.61 231.55 182.36C230.65 181.11 230.55 180.97 230.36 180.46C230.17 179.95 230.09 179.44 230.38 179.06Z" fill="#DDAA2A"/>
</g>
</g>
</g>
<defs>
<clipPath id="clip0">
<rect width="394.46" height="400.72" fill="white"/>
</clipPath>
</defs>
</svg>
